<?xml version="1.0" encoding="UTF-8"?> <svg xmlns="http://www.w3.org/2000/svg" width="60" height="60" viewBox="0 0 60 60" fill="none"><path d="M42.117 43.0071C41.567 42.9401 41.071 43.3341 41.007 43.8831C40.943 44.4321 41.335 44.9291 41.883 44.9931C52.399 46.2311 58 49.5671 58 51.5001C58 54.2141 47.348 58.0001 30 58.0001C12.652 58.0001 2 54.2141 2 51.5001C2 49.5671 7.601 46.2311 18.117 44.9931C18.665 44.9291 19.057 44.4311 18.993 43.8831C18.928 43.3341 18.432 42.9381 17.883 43.0071C7.354 44.2471 0 47.7391 0 51.5001C0 55.7241 10.305 60.0001 30 60.0001C49.695 60.0001 60 55.7241 60 51.5001C60 47.7391 52.646 44.2471 42.117 43.0071Z" fill="#EB1C23"></path><path d="M29.8235 54.757L45.1645 32.6C50.9185 24.929 50.0865 12.32 43.3835 5.618C39.7615 1.995 34.9455 0 29.8235 0C24.7015 0 19.8855 1.995 16.2635 5.617C9.56052 12.319 8.72852 24.928 14.4595 32.569L29.8235 54.757ZM30.0005 12C33.8605 12 37.0005 15.141 37.0005 19C37.0005 22.859 33.8605 26 30.0005 26C26.1405 26 23.0005 22.859 23.0005 19C23.0005 15.141 26.1405 12 30.0005 12Z" fill="#EB1C23"></path></svg> 