<?xml version="1.0" encoding="UTF-8"?> <svg xmlns="http://www.w3.org/2000/svg" width="60" height="60" viewBox="0 0 60 60" fill="none"><path d="M9.71215 36.4723C10.1126 36.7408 10.5654 36.8691 11.0134 36.8691C11.7693 36.8691 12.5114 36.5032 12.9634 35.8266C16.7505 30.1563 23.0814 26.771 29.8983 26.771C36.695 26.771 43.0154 30.1408 46.8053 35.7851C47.528 36.8613 48.9842 37.1467 50.0582 36.4227C51.1322 35.6987 51.4171 34.2394 50.6945 33.1634C47.6665 28.6539 43.3251 25.3265 38.3641 23.5464C41.3393 21.1113 43.2422 17.4083 43.2422 13.2681C43.2422 5.95198 37.3018 0 30 0C22.6982 0 16.7578 5.95198 16.7578 13.2681C16.7578 17.3786 18.633 21.0584 21.5714 23.4941C16.5328 25.2675 12.1262 28.6353 9.06773 33.2145C8.34785 34.2924 8.63637 35.751 9.71215 36.4723ZM30 4.69667C34.717 4.69667 38.5547 8.54184 38.5547 13.2681C38.5547 17.9944 34.717 21.8395 30 21.8395C25.283 21.8395 21.4453 17.9944 21.4453 13.2681C21.4453 8.54184 25.283 4.69667 30 4.69667ZM39.3466 41.5808L35.8526 44.1063C35.3327 44.4821 35.1151 45.1482 35.3137 45.7562L36.7208 49.8425C36.7802 50.0245 36.8031 50.2023 36.7955 50.3718C36.7457 51.4693 35.3728 52.2201 34.3659 51.4923L30.872 48.9661C30.6121 48.7782 30.3061 48.6843 30.0001 48.6843C29.6941 48.6843 29.3882 48.7782 29.1282 48.9661L25.6343 51.4923C24.6274 52.2201 23.248 51.4693 23.2044 50.3718C23.1977 50.2023 23.2212 50.0244 23.2806 49.8425L24.6864 45.7562C24.885 45.1482 24.6674 44.4821 24.1475 44.1063L20.6535 41.5808C19.491 40.7406 20.0884 38.7476 21.5253 38.7476H25.8442C26.4868 38.7476 27.0564 38.4997 27.2549 37.8917L28.5894 33.7789C28.8115 33.0992 29.4057 32.7593 30.0001 32.7593C30.5945 32.7593 31.1887 33.0992 31.4108 33.7789L32.7453 37.8917C32.944 38.4997 33.5134 38.7476 34.1561 38.7476H38.4749C39.9117 38.7476 40.5091 40.7406 39.3466 41.5808ZM59.3857 49.8L55.8916 52.3255C55.3718 52.7013 55.1542 53.3674 55.3528 53.9753L56.7599 58.0617C56.8193 58.2437 56.8421 58.4214 56.8345 58.591C56.7847 59.6885 55.4119 60.4393 54.405 59.7115L50.911 57.1853C50.6511 56.9974 50.3451 56.9035 50.0392 56.9035C49.7332 56.9035 49.4272 56.9974 49.1673 57.1853L45.6734 59.7115C44.6665 60.4393 43.2871 59.6885 43.2435 58.591C43.2368 58.4214 43.2602 58.2436 43.3196 58.0617L44.7254 53.9753C44.9241 53.3674 44.7064 52.7013 44.1866 52.3255L40.6925 49.8C39.53 48.9598 40.1275 46.9667 41.5644 46.9667H45.8832C46.5259 46.9667 47.0954 46.7189 47.2939 46.1109L48.6285 41.9981C48.8505 41.3184 49.4448 40.9785 50.0392 40.9785C50.6335 40.9785 51.2278 41.3184 51.4499 41.9981L52.7844 46.1109C52.983 46.7189 53.5525 46.9667 54.1951 46.9667H58.5139C59.9508 46.9667 60.5482 48.9598 59.3857 49.8ZM19.3076 49.8L15.8135 52.3255C15.2937 52.7013 15.0761 53.3674 15.2747 53.9753L16.6818 58.0617C16.7412 58.2437 16.764 58.4214 16.7564 58.591C16.7066 59.6885 15.3337 60.4393 14.3269 59.7115L10.8328 57.1853C10.5729 56.9974 10.2669 56.9035 9.96094 56.9035C9.65496 56.9035 9.34898 56.9974 9.08906 57.1853L5.59512 59.7115C4.58824 60.4393 3.20883 59.6885 3.16523 58.591C3.15855 58.4214 3.18199 58.2436 3.24141 58.0617L4.64719 53.9753C4.84582 53.3674 4.6282 52.7013 4.10836 52.3255L0.614297 49.8C-0.548203 48.9598 0.0492186 46.9667 1.48617 46.9667H5.805C6.44766 46.9667 7.01719 46.7189 7.2157 46.1109L8.55023 41.9981C8.7723 41.3184 9.36656 40.9785 9.96094 40.9785C10.5553 40.9785 11.1496 41.3184 11.3716 41.9981L12.7062 46.1109C12.9048 46.7189 13.4742 46.9667 14.1169 46.9667H18.4357C19.8727 46.9667 20.4701 48.9598 19.3076 49.8Z" fill="#EB1C23"></path></svg> 