<svg width="34" height="34" viewBox="0 0 34 34" fill="none" xmlns="http://www.w3.org/2000/svg">
<mask id="path-1-inside-1" fill="#eb1c23">
<path d="M30.0019 9.23455C29.8775 8.96794 29.5612 8.85306 29.2955 8.97797C29.0298 9.10287 28.9153 9.42023 29.0398 9.68689C29.3703 10.395 29.5379 11.1538 29.5379 11.9426C29.5379 13.3101 28.7896 15.1435 27.585 16.7272C26.4427 18.229 25.1265 19.1994 24.232 19.1994C23.7886 19.1994 23.2249 18.9537 22.6197 18.5024C23.1023 17.4291 23.3688 16.3684 23.3688 15.4443C23.3688 12.8047 21.7658 10.5339 19.4854 9.56038C20.3793 7.75833 22.1932 6.61813 24.232 6.61813C24.7849 6.61813 25.3294 6.70295 25.8505 6.87024C26.1301 6.96001 26.429 6.8053 26.5184 6.52495C26.6078 6.24453 26.4538 5.94445 26.1743 5.85473C25.5484 5.65375 24.8949 5.55187 24.232 5.55187C22.9251 5.55187 21.6691 5.94632 20.5998 6.6925C19.6729 7.33937 18.9423 8.20923 18.4671 9.2249C17.996 9.11306 17.505 9.05356 17.0003 9.05356C16.4956 9.05356 16.0046 9.11306 15.5335 9.22495C15.0569 8.20651 14.3237 7.33462 13.3936 6.68744C12.3259 5.9445 11.0725 5.55182 9.76875 5.55182C6.25724 5.55187 3.40039 8.41869 3.40039 11.9425C3.40039 13.5565 4.21193 15.587 5.57124 17.374C6.45598 18.5371 7.41983 19.3985 8.32784 19.8663L7.93094 20.5561C7.70973 20.9405 7.70978 21.3996 7.93094 21.784C8.15216 22.1684 8.54826 22.3979 8.99063 22.3979H9.05225C8.96003 22.9596 9.04237 23.5456 9.3004 24.0635C9.53181 24.5278 9.53181 25.0824 9.3004 25.5468C8.92024 26.3098 8.92024 27.2208 9.3004 27.9838C9.53181 28.4482 9.53181 29.0028 9.3004 29.4672C9.16918 29.7305 9.27554 30.0507 9.53797 30.1825C9.61426 30.2207 9.69528 30.2389 9.77513 30.2389C9.96999 30.2389 10.1576 30.1309 10.2507 29.9441C10.6309 29.181 10.6309 28.27 10.2507 27.507C10.0193 27.0426 10.0193 26.4881 10.2507 26.0237C10.6309 25.2606 10.6309 24.3496 10.2507 23.5866C10.0666 23.2172 10.0295 22.7908 10.1383 22.398H10.547C10.9894 22.398 11.3855 22.1685 11.6067 21.7841C11.8279 21.3996 11.8279 20.9406 11.6067 20.5562L11.2101 19.8669C11.4265 19.7552 11.6467 19.6207 11.8696 19.4636C12.1417 19.9429 12.4541 20.4174 12.8028 20.8758C13.6875 22.0389 14.6514 22.9003 15.5594 23.368L15.1625 24.0579C14.9413 24.4423 14.9413 24.9013 15.1625 25.2858C15.3836 25.6702 15.7798 25.8997 16.2221 25.8997H16.2838C16.1916 26.4614 16.2739 27.0473 16.5319 27.5652C16.7633 28.0296 16.7633 28.5842 16.5319 29.0486C16.1518 29.8116 16.1518 30.7226 16.5319 31.4856C16.625 31.6724 16.8126 31.7804 17.0075 31.7804C17.0873 31.7804 17.1684 31.7623 17.2447 31.724C17.5071 31.5923 17.6135 31.2721 17.4822 31.0087C17.2508 30.5443 17.2508 29.9898 17.4822 29.5254C17.8624 28.7624 17.8624 27.8514 17.4822 27.0883C17.2981 26.7188 17.261 26.2925 17.3699 25.8997H17.7786C18.2209 25.8997 18.617 25.6702 18.8382 25.2858C19.0594 24.9013 19.0594 24.4423 18.8382 24.0579L18.4413 23.368C19.3493 22.9003 20.3132 22.0389 21.1979 20.8758C21.5466 20.4174 21.8589 19.9429 22.131 19.4636C22.3539 19.6208 22.5742 19.7552 22.7905 19.867L22.394 20.5561C22.1728 20.9405 22.1728 21.3996 22.394 21.784C22.6152 22.1684 23.0113 22.3979 23.4536 22.3979H23.5153C23.423 22.9596 23.5054 23.5456 23.7634 24.0635C23.9948 24.5278 23.9948 25.0824 23.7634 25.5468C23.3833 26.3098 23.3833 27.2209 23.7634 27.9838C23.9948 28.4482 23.9948 29.0028 23.7634 29.4672C23.6322 29.7306 23.7386 30.0508 24.001 30.1825C24.0773 30.2207 24.1583 30.2389 24.2381 30.2389C24.433 30.2389 24.6206 30.1309 24.7137 29.9441C25.0939 29.181 25.0939 28.27 24.7137 27.507C24.4823 27.0426 24.4823 26.4881 24.7137 26.0237C25.0939 25.2606 25.0939 24.3496 24.7137 23.5866C24.5296 23.2172 24.4925 22.7908 24.6014 22.398H25.01C25.4524 22.398 25.8485 22.1685 26.0697 21.7841C26.2908 21.3996 26.2909 20.9406 26.0697 20.5562L25.6728 19.8663C26.5808 19.3986 27.5446 18.5373 28.4294 17.3741C29.7889 15.587 30.6004 13.5565 30.6004 11.9425C30.6004 10.9963 30.399 10.0852 30.0019 9.23455ZM10.6865 21.0892C10.727 21.1595 10.7039 21.2207 10.6865 21.2509C10.6692 21.2811 10.6279 21.3317 10.547 21.3317H8.99063C8.90972 21.3317 8.86849 21.2811 8.85112 21.2509C8.83375 21.2207 8.81064 21.1596 8.85112 21.0892L9.34752 20.2264C9.49128 20.2518 9.63206 20.2655 9.76886 20.2655C9.90571 20.2655 10.0465 20.2521 10.1905 20.2269L10.6865 21.0892ZM9.7688 19.1993C8.87428 19.1993 7.55811 18.2289 6.41582 16.7271C5.21121 15.1434 4.46289 13.3101 4.46289 11.9425C4.46289 9.00659 6.8431 6.61808 9.7688 6.61808C11.8059 6.61808 13.6213 7.75871 14.5154 9.56033C12.235 10.5338 10.632 12.8047 10.632 15.4442C10.632 16.3684 10.8985 17.4291 11.381 18.5024C10.7759 18.9537 10.212 19.1993 9.7688 19.1993ZM17.9181 24.591C17.9586 24.6613 17.9355 24.7224 17.9181 24.7526C17.9008 24.7828 17.8595 24.8334 17.7786 24.8334H16.2222C16.1413 24.8334 16.1 24.7828 16.0827 24.7526C16.0653 24.7224 16.0422 24.6613 16.0827 24.591L16.5791 23.7281C16.7228 23.7535 16.8636 23.7672 17.0004 23.7672C17.1372 23.7672 17.278 23.7535 17.4217 23.7281L17.9181 24.591ZM20.3534 20.2288C19.2111 21.7306 17.895 22.701 17.0004 22.701C16.1058 22.701 14.7897 21.7306 13.6474 20.2288C12.4428 18.6451 11.6945 16.8118 11.6945 15.4442C11.6945 12.5083 14.0747 10.1198 17.0004 10.1198C19.9261 10.1198 22.3063 12.5083 22.3063 15.4442C22.3063 16.8118 21.558 18.6452 20.3534 20.2288ZM25.1497 21.0892C25.1902 21.1595 25.1671 21.2207 25.1497 21.2509C25.1323 21.2811 25.0911 21.3317 25.0102 21.3317H23.4538C23.3729 21.3317 23.3317 21.2811 23.3143 21.2509C23.2969 21.2207 23.2738 21.1596 23.3143 21.0892L23.8105 20.2269C23.9543 20.2521 24.0952 20.2655 24.232 20.2655C24.3688 20.2655 24.5096 20.2518 24.6534 20.2264L25.1497 21.0892Z"/>
</mask>
<path d="M30.0019 9.23455C29.8775 8.96794 29.5612 8.85306 29.2955 8.97797C29.0298 9.10287 28.9153 9.42023 29.0398 9.68689C29.3703 10.395 29.5379 11.1538 29.5379 11.9426C29.5379 13.3101 28.7896 15.1435 27.585 16.7272C26.4427 18.229 25.1265 19.1994 24.232 19.1994C23.7886 19.1994 23.2249 18.9537 22.6197 18.5024C23.1023 17.4291 23.3688 16.3684 23.3688 15.4443C23.3688 12.8047 21.7658 10.5339 19.4854 9.56038C20.3793 7.75833 22.1932 6.61813 24.232 6.61813C24.7849 6.61813 25.3294 6.70295 25.8505 6.87024C26.1301 6.96001 26.429 6.8053 26.5184 6.52495C26.6078 6.24453 26.4538 5.94445 26.1743 5.85473C25.5484 5.65375 24.8949 5.55187 24.232 5.55187C22.9251 5.55187 21.6691 5.94632 20.5998 6.6925C19.6729 7.33937 18.9423 8.20923 18.4671 9.2249C17.996 9.11306 17.505 9.05356 17.0003 9.05356C16.4956 9.05356 16.0046 9.11306 15.5335 9.22495C15.0569 8.20651 14.3237 7.33462 13.3936 6.68744C12.3259 5.9445 11.0725 5.55182 9.76875 5.55182C6.25724 5.55187 3.40039 8.41869 3.40039 11.9425C3.40039 13.5565 4.21193 15.587 5.57124 17.374C6.45598 18.5371 7.41983 19.3985 8.32784 19.8663L7.93094 20.5561C7.70973 20.9405 7.70978 21.3996 7.93094 21.784C8.15216 22.1684 8.54826 22.3979 8.99063 22.3979H9.05225C8.96003 22.9596 9.04237 23.5456 9.3004 24.0635C9.53181 24.5278 9.53181 25.0824 9.3004 25.5468C8.92024 26.3098 8.92024 27.2208 9.3004 27.9838C9.53181 28.4482 9.53181 29.0028 9.3004 29.4672C9.16918 29.7305 9.27554 30.0507 9.53797 30.1825C9.61426 30.2207 9.69528 30.2389 9.77513 30.2389C9.96999 30.2389 10.1576 30.1309 10.2507 29.9441C10.6309 29.181 10.6309 28.27 10.2507 27.507C10.0193 27.0426 10.0193 26.4881 10.2507 26.0237C10.6309 25.2606 10.6309 24.3496 10.2507 23.5866C10.0666 23.2172 10.0295 22.7908 10.1383 22.398H10.547C10.9894 22.398 11.3855 22.1685 11.6067 21.7841C11.8279 21.3996 11.8279 20.9406 11.6067 20.5562L11.2101 19.8669C11.4265 19.7552 11.6467 19.6207 11.8696 19.4636C12.1417 19.9429 12.4541 20.4174 12.8028 20.8758C13.6875 22.0389 14.6514 22.9003 15.5594 23.368L15.1625 24.0579C14.9413 24.4423 14.9413 24.9013 15.1625 25.2858C15.3836 25.6702 15.7798 25.8997 16.2221 25.8997H16.2838C16.1916 26.4614 16.2739 27.0473 16.5319 27.5652C16.7633 28.0296 16.7633 28.5842 16.5319 29.0486C16.1518 29.8116 16.1518 30.7226 16.5319 31.4856C16.625 31.6724 16.8126 31.7804 17.0075 31.7804C17.0873 31.7804 17.1684 31.7623 17.2447 31.724C17.5071 31.5923 17.6135 31.2721 17.4822 31.0087C17.2508 30.5443 17.2508 29.9898 17.4822 29.5254C17.8624 28.7624 17.8624 27.8514 17.4822 27.0883C17.2981 26.7188 17.261 26.2925 17.3699 25.8997H17.7786C18.2209 25.8997 18.617 25.6702 18.8382 25.2858C19.0594 24.9013 19.0594 24.4423 18.8382 24.0579L18.4413 23.368C19.3493 22.9003 20.3132 22.0389 21.1979 20.8758C21.5466 20.4174 21.8589 19.9429 22.131 19.4636C22.3539 19.6208 22.5742 19.7552 22.7905 19.867L22.394 20.5561C22.1728 20.9405 22.1728 21.3996 22.394 21.784C22.6152 22.1684 23.0113 22.3979 23.4536 22.3979H23.5153C23.423 22.9596 23.5054 23.5456 23.7634 24.0635C23.9948 24.5278 23.9948 25.0824 23.7634 25.5468C23.3833 26.3098 23.3833 27.2209 23.7634 27.9838C23.9948 28.4482 23.9948 29.0028 23.7634 29.4672C23.6322 29.7306 23.7386 30.0508 24.001 30.1825C24.0773 30.2207 24.1583 30.2389 24.2381 30.2389C24.433 30.2389 24.6206 30.1309 24.7137 29.9441C25.0939 29.181 25.0939 28.27 24.7137 27.507C24.4823 27.0426 24.4823 26.4881 24.7137 26.0237C25.0939 25.2606 25.0939 24.3496 24.7137 23.5866C24.5296 23.2172 24.4925 22.7908 24.6014 22.398H25.01C25.4524 22.398 25.8485 22.1685 26.0697 21.7841C26.2908 21.3996 26.2909 20.9406 26.0697 20.5562L25.6728 19.8663C26.5808 19.3986 27.5446 18.5373 28.4294 17.3741C29.7889 15.587 30.6004 13.5565 30.6004 11.9425C30.6004 10.9963 30.399 10.0852 30.0019 9.23455ZM10.6865 21.0892C10.727 21.1595 10.7039 21.2207 10.6865 21.2509C10.6692 21.2811 10.6279 21.3317 10.547 21.3317H8.99063C8.90972 21.3317 8.86849 21.2811 8.85112 21.2509C8.83375 21.2207 8.81064 21.1596 8.85112 21.0892L9.34752 20.2264C9.49128 20.2518 9.63206 20.2655 9.76886 20.2655C9.90571 20.2655 10.0465 20.2521 10.1905 20.2269L10.6865 21.0892ZM9.7688 19.1993C8.87428 19.1993 7.55811 18.2289 6.41582 16.7271C5.21121 15.1434 4.46289 13.3101 4.46289 11.9425C4.46289 9.00659 6.8431 6.61808 9.7688 6.61808C11.8059 6.61808 13.6213 7.75871 14.5154 9.56033C12.235 10.5338 10.632 12.8047 10.632 15.4442C10.632 16.3684 10.8985 17.4291 11.381 18.5024C10.7759 18.9537 10.212 19.1993 9.7688 19.1993ZM17.9181 24.591C17.9586 24.6613 17.9355 24.7224 17.9181 24.7526C17.9008 24.7828 17.8595 24.8334 17.7786 24.8334H16.2222C16.1413 24.8334 16.1 24.7828 16.0827 24.7526C16.0653 24.7224 16.0422 24.6613 16.0827 24.591L16.5791 23.7281C16.7228 23.7535 16.8636 23.7672 17.0004 23.7672C17.1372 23.7672 17.278 23.7535 17.4217 23.7281L17.9181 24.591ZM20.3534 20.2288C19.2111 21.7306 17.895 22.701 17.0004 22.701C16.1058 22.701 14.7897 21.7306 13.6474 20.2288C12.4428 18.6451 11.6945 16.8118 11.6945 15.4442C11.6945 12.5083 14.0747 10.1198 17.0004 10.1198C19.9261 10.1198 22.3063 12.5083 22.3063 15.4442C22.3063 16.8118 21.558 18.6452 20.3534 20.2288ZM25.1497 21.0892C25.1902 21.1595 25.1671 21.2207 25.1497 21.2509C25.1323 21.2811 25.0911 21.3317 25.0102 21.3317H23.4538C23.3729 21.3317 23.3317 21.2811 23.3143 21.2509C23.2969 21.2207 23.2738 21.1596 23.3143 21.0892L23.8105 20.2269C23.9543 20.2521 24.0952 20.2655 24.232 20.2655C24.3688 20.2655 24.5096 20.2518 24.6534 20.2264L25.1497 21.0892Z" fill="#eb1c23" stroke="#eb1c23" stroke-width="2" mask="url(#path-1-inside-1)"/>
<path d="M30.9714 4.92636C30.9415 4.95624 30.8973 4.97449 30.8555 4.97449C30.8136 4.97449 30.7694 4.95624 30.7395 4.92636C30.7097 4.89649 30.6914 4.85229 30.6914 4.81043C30.6914 4.76856 30.7097 4.72436 30.7395 4.69449C30.7694 4.66461 30.8136 4.64636 30.8555 4.64636C30.8973 4.64636 30.9415 4.66461 30.9714 4.69449C31.0015 4.72455 31.0195 4.76817 31.0195 4.81043C31.0195 4.85229 31.0013 4.89649 30.9714 4.92636Z" fill="#eb1c23" stroke="#eb1c23"/>
</svg>
