<svg width="60" height="44" viewBox="0 0 60 44" fill="none" xmlns="http://www.w3.org/2000/svg">
<path d="M18.7495 43.4462C18.4657 43.4462 18.1769 43.394 17.8967 43.2846C16.6914 42.8131 16.0959 41.454 16.5669 40.2483L21.4407 27.7784C22.4547 25.1833 22.9688 22.4555 22.9688 19.6695V9.92969C22.9688 7.34515 20.8658 5.24219 18.2812 5.24219H9.375C6.79047 5.24219 4.6875 7.34515 4.6875 9.92969V18.8359C4.6875 21.4205 6.79047 23.5234 9.375 23.5234H14.2969C15.5914 23.5234 16.6406 24.5726 16.6406 25.8672C16.6406 27.1617 15.5914 28.2109 14.2969 28.2109H9.375C4.20547 28.2109 0 24.0055 0 18.8359V9.92969C0 4.76016 4.20547 0.554688 9.375 0.554688H18.2812C23.4508 0.554688 27.6562 4.76016 27.6562 9.92969V19.6695C27.6562 23.0414 27.0337 26.3437 25.8064 29.4844L20.9331 41.9548C20.5714 42.88 19.6861 43.4462 18.7495 43.4462ZM53.2768 41.9548L58.1502 29.4844C59.3774 26.3437 60 23.0414 60 19.6695V9.92969C60 4.76016 55.7945 0.554688 50.625 0.554688H41.7188C36.5492 0.554688 32.3438 4.76016 32.3438 9.92969V18.8359C32.3438 24.0055 36.5492 28.2109 41.7188 28.2109H46.6406C47.9352 28.2109 48.9844 27.1617 48.9844 25.8672C48.9844 24.5726 47.9352 23.5234 46.6406 23.5234H41.7188C39.1342 23.5234 37.0312 21.4205 37.0312 18.8359V9.92969C37.0312 7.34515 39.1342 5.24219 41.7188 5.24219H50.625C53.2095 5.24219 55.3125 7.34515 55.3125 9.92969V19.6695C55.3125 22.455 54.7984 25.1833 53.7845 27.7784L48.9107 40.2483C48.4396 41.454 49.0352 42.8131 50.2405 43.2846C50.5211 43.394 50.8095 43.4458 51.0933 43.4458C52.0299 43.4462 52.9152 42.88 53.2768 41.9548Z" fill="white"/>
</svg>
