<svg width="10" height="10" viewBox="0 0 10 10" fill="none" xmlns="http://www.w3.org/2000/svg">
<path d="M9.84016 4.61156L6.22881 1.00013C6.12572 0.897039 5.98832 0.840454 5.84182 0.840454C5.69515 0.840454 5.55784 0.89712 5.45475 1.00013L5.12687 1.32809C5.02386 1.43102 4.96711 1.5685 4.96711 1.71508C4.96711 1.86158 5.02386 2.0037 5.12687 2.10662L7.23368 4.21807H0.540239C0.238453 4.21807 0 4.45433 0 4.75619V5.21985C0 5.52172 0.238453 5.7818 0.540239 5.7818H7.25758L5.12695 7.90503C5.02394 8.00812 4.96719 8.14186 4.96719 8.28844C4.96719 8.43486 5.02394 8.57055 5.12695 8.67356L5.45483 9.00047C5.55792 9.10356 5.69523 9.15973 5.8419 9.15973C5.9884 9.15973 6.1258 9.10283 6.22889 8.99974L9.84024 5.38838C9.94357 5.28497 10.0004 5.14692 9.99999 5.00018C10.0003 4.85294 9.94357 4.71481 9.84016 4.61156Z" fill="white"/>
</svg>
