<svg width="28" height="24" viewBox="0 0 28 24" fill="none" xmlns="http://www.w3.org/2000/svg">
<path d="M27.0684 4.41442C26.5095 3.82887 25.7376 3.48286 24.8593 3.48286H20.4411V3.42963C20.4411 2.76423 20.1749 2.12544 19.7224 1.69959C19.27 1.24712 18.6578 0.980957 17.9924 0.980957H10.0076C9.31559 0.980957 8.70342 1.24712 8.25095 1.69959C7.79848 2.15206 7.53232 2.76423 7.53232 3.42963V3.48286H3.14068C2.26236 3.48286 1.49049 3.82887 0.931559 4.41442C0.372624 4.97335 0 5.77183 0 6.62354V19.8783C0 20.7566 0.346008 21.5285 0.931559 22.0874C1.49049 22.6464 2.28897 23.019 3.14068 23.019H24.8593C25.7376 23.019 26.5095 22.673 27.0684 22.0874C27.6274 21.5285 28 20.73 28 19.8783V6.62354C28 5.74521 27.654 4.97335 27.0684 4.41442ZM26.616 19.8783H26.5894C26.5894 20.3574 26.403 20.7832 26.0837 21.1026C25.7643 21.422 25.3384 21.6083 24.8593 21.6083H3.14068C2.6616 21.6083 2.23574 21.422 1.91635 21.1026C1.59696 20.7832 1.41065 20.3574 1.41065 19.8783V6.62354C1.41065 6.14445 1.59696 5.7186 1.91635 5.39921C2.23574 5.07982 2.6616 4.8935 3.14068 4.8935H8.27757C8.67681 4.8935 8.9962 4.57411 8.9962 4.17487V3.40301C8.9962 3.11023 9.10266 2.84407 9.28897 2.65776C9.47529 2.47145 9.74145 2.36499 10.0342 2.36499H17.9924C18.2852 2.36499 18.5513 2.47145 18.7376 2.65776C18.924 2.84407 19.0304 3.11023 19.0304 3.40301V4.17487C19.0304 4.57411 19.3498 4.8935 19.7491 4.8935H24.8859C25.365 4.8935 25.7909 5.07982 26.1103 5.39921C26.4297 5.7186 26.616 6.14445 26.616 6.62354V19.8783Z" fill="#eb1c23"/>
<path d="M14.0007 6.70337C12.1908 6.70337 10.5406 7.44862 9.36948 8.61972C8.17176 9.81744 7.45312 11.441 7.45312 13.2509C7.45312 15.0608 8.19837 16.711 9.36948 17.8821C10.5672 19.0798 12.1908 19.7984 14.0007 19.7984C15.8105 19.7984 17.4607 19.0532 18.6318 17.8821C19.8296 16.6844 20.5482 15.0608 20.5482 13.2509C20.5482 11.441 19.8029 9.79082 18.6318 8.61972C17.4607 7.44862 15.8105 6.70337 14.0007 6.70337ZM17.6204 16.8973C16.6889 17.8022 15.4113 18.3878 14.0007 18.3878C12.59 18.3878 11.3124 17.8022 10.3809 16.8973C9.44932 15.9657 8.89039 14.6882 8.89039 13.2775C8.89039 11.8669 9.47594 10.5893 10.3809 9.65774C11.3124 8.72618 12.59 8.16725 14.0007 8.16725C15.4113 8.16725 16.6889 8.7528 17.6204 9.65774C18.552 10.5893 19.1109 11.8669 19.1109 13.2775C19.1375 14.6882 18.552 15.9657 17.6204 16.8973Z" fill="#eb1c23"/>
<path d="M23.4761 9.28513C24.1963 9.28513 24.7803 8.70122 24.7803 7.98094C24.7803 7.26066 24.1963 6.67676 23.4761 6.67676C22.7558 6.67676 22.1719 7.26066 22.1719 7.98094C22.1719 8.70122 22.7558 9.28513 23.4761 9.28513Z" fill="#eb1c23"/>
</svg>
