<svg width="60" height="60" viewBox="0 0 60 60" fill="none" xmlns="http://www.w3.org/2000/svg">
<path d="M59.9314 49.7189L59.892 49.528C59.8911 49.523 59.8902 49.5179 59.8888 49.5133L59.7222 48.7127L59.4859 47.5761C58.9934 45.2127 57.0516 43.4361 54.6547 43.155L46.978 42.255L44.5876 39.3418C44.2639 38.9472 43.9165 38.5682 43.5549 38.2153C43.2074 37.8765 42.6508 37.8834 42.312 38.2308C41.9733 38.5783 41.9801 39.1345 42.3271 39.4737C42.6425 39.7813 42.9456 40.1118 43.2285 40.4569L44.6654 42.2079H34.5667L32.4802 36.0391H33.8919C35.7642 36.0391 37.6392 36.4836 39.315 37.3249C39.749 37.5428 40.2773 37.3675 40.4947 36.934C40.7126 36.5 40.5373 35.9718 40.1038 35.7539C38.1844 34.7907 36.0365 34.2812 33.8919 34.2812H14.133C10.735 34.2812 7.68723 36.1736 6.1789 39.2201L4.70169 42.2079H3.70056C1.66214 42.2079 0.00320435 43.865 0 45.903V45.9085V50.7662C0 52.3323 1.27441 53.6067 2.84042 53.6067H4.6582C5.06104 55.9504 7.10816 57.7398 9.56497 57.7398C12.0223 57.7398 14.0694 55.9504 14.4722 53.6067H45.4994C45.9023 55.9504 47.9494 57.7398 50.4067 57.7398C52.8635 57.7398 54.9106 55.9504 55.3134 53.6067H56.7696C57.7455 53.6067 58.6588 53.1723 59.2749 52.4151C59.8911 51.6575 60.1305 50.6747 59.9314 49.7189ZM56.613 48.6399L56.8611 47.5971L56.8689 47.5912H57.6769C57.7117 47.7043 57.741 47.8187 57.7652 47.9345L57.9479 48.8134H56.7499C56.7046 48.8134 56.6675 48.7951 56.6396 48.7599C56.6112 48.7242 56.6025 48.6839 56.613 48.6399ZM30.6244 36.0391L32.7109 42.2079H18.4117L16.3252 36.0391H30.6244ZM1.75781 46.4871H2.64313C2.68845 46.4871 2.72598 46.5054 2.75436 46.5406C2.77359 46.5653 2.79419 46.6061 2.78137 46.661L2.54837 47.6713C2.53372 47.7363 2.47696 47.7816 2.41013 47.7816H1.75781V46.4871ZM9.56497 55.982C7.78931 55.982 6.34415 54.5369 6.34415 52.7607C6.34415 52.7598 6.34415 52.7584 6.34415 52.7575C6.34461 52.7479 6.34461 52.7378 6.34461 52.7278C6.34461 52.7227 6.34461 52.7182 6.34461 52.7131C6.37024 50.959 7.80533 49.5394 9.56543 49.5394C11.3416 49.5394 12.7863 50.9846 12.7863 52.7607C12.7863 54.5369 11.3416 55.982 9.56497 55.982ZM50.4067 55.982C48.6305 55.982 47.1854 54.5369 47.1854 52.7607C47.1854 50.9846 48.6305 49.5394 50.4067 49.5394C52.1828 49.5394 53.6275 50.9846 53.6275 52.7607C53.6275 54.5369 52.1828 55.982 50.4067 55.982ZM57.9112 51.306C57.6306 51.6511 57.2145 51.8489 56.7696 51.8489H55.302C54.8721 49.5376 52.8406 47.7816 50.4067 47.7816C47.9723 47.7816 45.9407 49.5376 45.5113 51.8489H14.4603C14.0309 49.5376 11.9994 47.7816 9.56497 47.7816C7.13104 47.7816 5.09949 49.5376 4.67011 51.8489H2.84042C2.2435 51.8489 1.75781 51.3632 1.75781 50.7662V49.5394H2.41013C3.30048 49.5394 4.06174 48.9338 4.26132 48.0664L4.49432 47.0556C4.62479 46.4884 4.49204 45.9016 4.12949 45.4461C3.76694 44.9906 3.2254 44.7293 2.64313 44.7293H2.15744C2.51267 44.2655 3.07251 43.9657 3.70056 43.9657H5.24277H5.24735H10.1683C10.6535 43.9657 11.0472 43.572 11.0472 43.0868C11.0472 42.6011 10.6535 42.2079 10.1683 42.2079H6.66275L7.75452 39.9996C8.96393 37.5566 11.4079 36.0391 14.133 36.0391H14.4695L16.5559 42.2079H14.1243C13.6391 42.2079 13.2454 42.6011 13.2454 43.0868C13.2454 43.572 13.6391 43.9657 14.1243 43.9657H17.7621H17.7809H17.8001H46.4726L54.4501 44.9005C55.2603 44.9957 55.9946 45.3399 56.5714 45.8581C55.8815 45.9744 55.318 46.4894 55.1509 47.1897L54.9028 48.2325C54.7673 48.8011 54.8973 49.3902 55.2599 49.8489C55.622 50.308 56.1653 50.5708 56.7499 50.5708H58.2289C58.1941 50.8372 58.0856 51.0913 57.9112 51.306Z" fill="#0C1421"/>
<path d="M9.56497 50.2852C8.20038 50.2852 7.08984 51.3957 7.08984 52.7607C7.08984 54.1258 8.20038 55.2359 9.56497 55.2359C10.93 55.2359 12.0406 54.1258 12.0406 52.7607C12.0406 51.3957 10.93 50.2852 9.56497 50.2852ZM9.56497 53.4781C9.16946 53.4781 8.84766 53.1562 8.84766 52.7607C8.84766 52.3648 9.16946 52.043 9.56497 52.043C9.96094 52.043 10.2827 52.3648 10.2827 52.7607C10.2827 53.1562 9.96094 53.4781 9.56497 53.4781Z" fill="#0C1421"/>
<path d="M50.4053 50.2852C49.0402 50.2852 47.9297 51.3957 47.9297 52.7607C47.9297 54.1258 49.0402 55.2359 50.4053 55.2359C51.7699 55.2359 52.8804 54.1258 52.8804 52.7607C52.8804 51.3957 51.7699 50.2852 50.4053 50.2852ZM50.4053 53.4781C50.0093 53.4781 49.6875 53.1562 49.6875 52.7607C49.6875 52.3648 50.0093 52.043 50.4053 52.043C50.8008 52.043 51.1226 52.3648 51.1226 52.7607C51.1226 53.1562 50.8008 53.4781 50.4053 53.4781Z" fill="#0C1421"/>
<path d="M36.2233 44.7292H35.1191C34.6335 44.7292 34.2402 45.1229 34.2402 45.6082C34.2402 46.0938 34.6335 46.4871 35.1191 46.4871H36.2233C36.7085 46.4871 37.1022 46.0938 37.1022 45.6082C37.1022 45.1229 36.7085 44.7292 36.2233 44.7292Z" fill="#0C1421"/>
<path d="M15.9162 44.7292H14.8125C14.3268 44.7292 13.9336 45.1229 13.9336 45.6082C13.9336 46.0938 14.3268 46.4871 14.8125 46.4871H15.9162C16.4019 46.4871 16.7951 46.0938 16.7951 45.6082C16.7951 45.1229 16.4019 44.7292 15.9162 44.7292Z" fill="#0C1421"/>
</svg>
