<svg id="categorie-titel-icon-svg" width="14" height="16" viewBox="0 0 14 16"  xmlns="http://www.w3.org/2000/svg">
<path d="M11.7003 0H1.83815C1.3508 0.000488744 0.883537 0.194308 0.538922 0.538922C0.194308 0.883537 0.000488744 1.3508 0 1.83815V15.3846C6.24738e-05 15.4971 0.0309698 15.6075 0.0893616 15.7036C0.147753 15.7998 0.231395 15.8781 0.331191 15.9301C0.430987 15.9821 0.543119 16.0057 0.655394 15.9984C0.767669 15.991 0.875789 15.9531 0.968 15.8886L6.76923 11.8283L12.5705 15.8898C12.6739 15.9618 12.797 16.0003 12.9231 16C13.022 15.9998 13.1195 15.9759 13.2074 15.9305C13.3072 15.8785 13.3909 15.8001 13.4492 15.7038C13.5076 15.6076 13.5385 15.4972 13.5385 15.3846V1.83815C13.538 1.3508 13.3442 0.883537 12.9995 0.538922C12.6549 0.194308 12.1877 0.000488744 11.7003 0ZM12.3077 14.2031L7.12185 10.5723C7.01847 10.5 6.89537 10.4613 6.76923 10.4613C6.64309 10.4613 6.51999 10.5 6.41662 10.5723L1.23077 14.2031V1.83815C1.23093 1.67712 1.29498 1.52272 1.40885 1.40885C1.52272 1.29498 1.67712 1.23093 1.83815 1.23077H11.7003C11.8613 1.23093 12.0157 1.29498 12.1296 1.40885C12.2435 1.52272 12.3075 1.67712 12.3077 1.83815V14.2031Z" fill="#8E8E8E"/>
<path d="M8.00075 2.46143H5.53921C5.376 2.46143 5.21948 2.52626 5.10407 2.64167C4.98866 2.75707 4.92383 2.9136 4.92383 3.07681C4.92383 3.24002 4.98866 3.39655 5.10407 3.51195C5.21948 3.62736 5.376 3.69219 5.53921 3.69219H8.00075C8.16396 3.69219 8.32049 3.62736 8.43589 3.51195C8.5513 3.39655 8.61614 3.24002 8.61614 3.07681C8.61614 2.9136 8.5513 2.75707 8.43589 2.64167C8.32049 2.52626 8.16396 2.46143 8.00075 2.46143Z" fill="#8E8E8E"/>
</svg>
