<svg width="14" height="14" viewBox="0 0 14 14" fill="none" xmlns="http://www.w3.org/2000/svg">
<g clip-path="url(#clip0)">
<path d="M7.54369 13.7762L12.5997 8.72033C12.744 8.57601 12.8232 8.38365 12.8232 8.17855C12.8232 7.97322 12.7439 7.78097 12.5997 7.63665L12.1405 7.17761C11.9965 7.0334 11.804 6.95396 11.5988 6.95396C11.3937 6.95396 11.1947 7.0334 11.0506 7.17761L8.09458 10.1271L8.09458 0.756335C8.09458 0.333834 7.76382 -2.21154e-07 7.34121 -2.39627e-07L6.69209 -2.68001e-07C6.26948 -2.86474e-07 5.90536 0.333834 5.90536 0.756335L5.90536 10.1606L2.93284 7.17773C2.78851 7.03352 2.60128 6.95407 2.39606 6.95407C2.19107 6.95407 2.00111 7.03352 1.85689 7.17773L1.39922 7.63676C1.2549 7.78109 1.17625 7.97333 1.17625 8.17866C1.17625 8.38376 1.25592 8.57612 1.40025 8.72044L6.45614 13.7763C6.60092 13.921 6.79419 14.0006 6.99963 14C7.20576 14.0004 7.39914 13.921 7.54369 13.7762Z" fill="#0C1421"/>
</g>
<defs>
<clipPath id="clip0">
<rect width="14" height="14" fill="white" transform="translate(14) rotate(90)"/>
</clipPath>
</defs>
</svg>
