<svg width="41" height="22" viewBox="0 0 41 22" fill="none" xmlns="http://www.w3.org/2000/svg">
<path d="M39.7865 0.587964C39.4442 0.214284 38.9572 0 38.4505 0H37.9129C36.503 0 35.3469 1.05907 35.2237 2.46352L34.642 9.09091C34.5905 9.67825 34.1069 10.1212 33.5172 10.1212H28.4825C26.8692 10.1212 25.5566 11.4337 25.5566 13.047V13.3378C25.5566 14.3124 26.3495 15.1053 27.3242 15.1053H28.4034L27.3407 18.576C27.3399 18.5786 27.3391 18.5811 27.3383 18.5837L26.526 21.2366C26.4306 21.5481 26.6058 21.8778 26.9172 21.9732C26.9748 21.9908 27.033 21.9992 27.0901 21.9992C27.3425 21.9992 27.5761 21.8359 27.6538 21.582L28.3389 19.3447H36.4282L37.1133 21.582C37.191 21.8359 37.4245 21.9992 37.6769 21.9992C37.7342 21.9992 37.7924 21.9908 37.8499 21.9732C38.1613 21.8778 38.3365 21.548 38.2411 21.2366L36.3132 14.9405C36.6517 14.8447 36.9786 14.7083 37.2853 14.5326C37.5678 14.3706 37.6655 14.0102 37.5036 13.7276C37.3416 13.4451 36.9811 13.3473 36.6986 13.5093C36.2233 13.7818 35.6811 13.9259 35.1305 13.9259H29.2012C29.1992 13.9259 29.1973 13.9259 29.1954 13.9259H27.3244C27.0002 13.9259 26.7363 13.6621 26.7363 13.3378V13.0471C26.7363 12.0842 27.5197 11.3008 28.4826 11.3008H33.5174C34.7231 11.3008 35.7118 10.3951 35.8172 9.19409L36.3988 2.56661C36.4682 1.77585 37.1191 1.17947 37.9129 1.17947H38.4506C38.63 1.17947 38.7957 1.25236 38.9169 1.38471C39.0381 1.51705 39.0963 1.6884 39.0806 1.86722L38.2752 11.0449C38.2554 11.2713 38.2113 11.4952 38.1442 11.7105C38.0473 12.0215 38.221 12.3522 38.532 12.449C38.8434 12.5459 39.1736 12.3722 39.2705 12.0613C39.3626 11.7655 39.4231 11.4583 39.4504 11.148L40.2558 1.97031C40.2998 1.46555 40.1288 0.961644 39.7865 0.587964ZM29.6368 15.1054H35.1299L36.0668 18.1652H28.6998L29.6368 15.1054Z" fill="#0C1421"/>
<path d="M11.7799 10.1222H6.74513C6.15543 10.1222 5.67198 9.6793 5.62039 9.09189L5.0388 2.4645C4.91558 1.06005 3.75946 0.000976562 2.34959 0.000976562H1.81195C1.30522 0.000976562 0.818227 0.21526 0.475923 0.58894C0.133618 0.96262 -0.0373371 1.46652 0.00685655 1.97145L0.81225 11.1492C0.907322 12.2322 1.40116 13.2331 2.20286 13.9676C2.70652 14.429 3.30455 14.76 3.94906 14.9424L2.02136 21.2377C1.92598 21.5491 2.10118 21.8789 2.41258 21.9743C2.47014 21.9919 2.52833 22.0003 2.5855 22.0003C2.83784 22.0003 3.07147 21.837 3.14917 21.583L3.83425 19.3458H11.9236L12.6087 21.583C12.6863 21.837 12.9199 22.0003 13.1723 22.0003C13.2296 22.0003 13.2878 21.9919 13.3452 21.9743C13.6566 21.8789 13.8318 21.5491 13.7365 21.2377L12.9241 18.5848C12.9234 18.5822 12.9226 18.5796 12.9218 18.577L11.8591 15.1064H12.9382C13.9129 15.1064 14.7057 14.3135 14.7057 13.3388V13.0481C14.7057 11.4347 13.3932 10.1222 11.7799 10.1222ZM4.19542 18.1661L5.1323 15.1063H10.6254L11.5623 18.1661H4.19542ZM13.5262 13.3387C13.5262 13.663 13.2624 13.9268 12.9382 13.9268H11.0676C11.0653 13.9268 11.063 13.9268 11.0606 13.9268H5.13198C5.00585 13.9268 4.88176 13.9187 4.75956 13.9045C4.75948 13.9045 4.75932 13.9045 4.75917 13.9045C3.28363 13.7339 2.12029 12.5626 1.98724 11.0459L1.18184 1.86828C1.16611 1.68938 1.2243 1.51803 1.34556 1.38568C1.46674 1.25334 1.63235 1.18044 1.81188 1.18044H2.34951C3.14335 1.18044 3.7943 1.77674 3.86366 2.56759L4.44525 9.19498V9.1949C4.55062 10.3959 5.53932 11.3017 6.74505 11.3017H11.7798C12.7427 11.3017 13.5261 12.085 13.5261 13.0479V13.3387H13.5262Z" fill="#0C1421"/>
<path d="M24.609 20.054C24.3657 19.1184 23.5206 18.465 22.5539 18.465H22.1889V7.7285H29.4513C29.8696 7.7285 30.2612 7.54253 30.5256 7.21831C30.7899 6.89401 30.8933 6.473 30.809 6.06314C30.5554 4.82981 29.4574 3.93469 28.1984 3.93469H15.9368C15.611 3.93469 15.347 4.19875 15.347 4.52447C15.347 4.85018 15.611 5.11424 15.9368 5.11424H28.1984C28.9003 5.11424 29.5122 5.61326 29.6536 6.3007C29.6709 6.38437 29.6345 6.44453 29.6114 6.473C29.5882 6.50138 29.5366 6.54904 29.4513 6.54904H10.8102C10.7249 6.54904 10.6733 6.50138 10.6501 6.473C10.627 6.44461 10.5907 6.38437 10.6079 6.30078C10.7493 5.61326 11.3612 5.11424 12.0631 5.11424H13.1707C13.4965 5.11424 13.7604 4.85018 13.7604 4.52447C13.7604 4.19875 13.4965 3.93469 13.1707 3.93469H12.0631C10.804 3.93469 9.7061 4.82981 9.4525 6.06322C9.36828 6.47307 9.47161 6.89409 9.73598 7.21831C10.0004 7.54253 10.3919 7.7285 10.8102 7.7285H18.0727V18.4651H17.7077C16.741 18.4651 15.896 19.1185 15.6526 20.054L15.5141 20.5861C15.4255 20.927 15.4981 21.2822 15.7135 21.5609C15.929 21.8395 16.2545 21.9994 16.6067 21.9994H23.6549C24.0071 21.9994 24.3325 21.8396 24.548 21.5609C24.7634 21.2823 24.8361 20.927 24.7474 20.5861L24.609 20.054ZM19.2522 7.7285H21.0095V18.4651H19.2522V7.7285ZM16.6721 20.8197L16.7941 20.3509C16.9023 19.9351 17.2779 19.6447 17.7076 19.6447H22.5539C22.9835 19.6447 23.3592 19.9351 23.4673 20.3509L23.5894 20.8197H16.6721Z" fill="#0C1421"/>
</svg>
