<svg width="67" height="67" viewBox="0 0 67 67" fill="none" xmlns="http://www.w3.org/2000/svg">
<g clip-path="url(#clip0)">
<path d="M66.9233 37.6528L66.8794 37.4396C66.8783 37.434 66.8773 37.4283 66.8758 37.4232L66.6897 36.5292L66.426 35.26C65.8759 32.6208 63.7076 30.6369 61.0311 30.3231L52.4588 29.3181L49.7894 26.065C49.428 25.6244 49.0401 25.2012 48.6362 24.8071C48.2483 24.4288 47.6267 24.4365 47.2484 24.8244C46.8702 25.2124 46.8778 25.8335 47.2653 26.2123C47.6175 26.5558 47.9559 26.9248 48.2718 27.3103L49.8763 29.2655H38.5994L36.2695 22.377H37.846C39.9366 22.377 42.0304 22.8733 43.9018 23.8128C44.3864 24.0561 44.9763 23.8604 45.2191 23.3763C45.4624 22.8917 45.2666 22.3018 44.7825 22.0585C42.6392 20.983 40.2408 20.4141 37.846 20.4141H15.7818C11.9874 20.4141 8.58407 22.5272 6.89977 25.9291L5.25022 29.2655H4.13229C1.85606 29.2655 0.00357819 31.1159 0 33.3916V33.3978V38.8223C0 40.571 1.4231 41.9941 3.17181 41.9941H5.20166C5.65149 44.6113 7.93744 46.6095 10.6809 46.6095C13.4248 46.6095 15.7108 44.6113 16.1606 41.9941H50.8077C51.2575 44.6113 53.5435 46.6095 56.2874 46.6095C59.0309 46.6095 61.3168 44.6113 61.7667 41.9941H63.3927C64.4825 41.9941 65.5023 41.509 66.1903 40.6635C66.8783 39.8176 67.1457 38.7201 66.9233 37.6528ZM63.2179 36.4479L63.4949 35.2835L63.5036 35.2768H64.4058C64.4447 35.4031 64.4774 35.5309 64.5045 35.6602L64.7084 36.6417H63.3707C63.3201 36.6417 63.2787 36.6212 63.2475 36.5819C63.2158 36.542 63.2061 36.497 63.2179 36.4479ZM34.1972 22.377L36.5271 29.2655H20.5597L18.2298 22.377H34.1972ZM1.96289 34.0439H2.95149C3.0021 34.0439 3.04401 34.0643 3.07571 34.1037C3.09718 34.1313 3.12018 34.1768 3.10587 34.2381L2.84568 35.3663C2.82932 35.4389 2.76594 35.4895 2.69131 35.4895H1.96289V34.0439ZM10.6809 44.6466C8.69806 44.6466 7.0843 43.0328 7.0843 41.0495C7.0843 41.0485 7.0843 41.0469 7.0843 41.0459C7.08481 41.0352 7.08481 41.0239 7.08481 41.0127C7.08481 41.007 7.08481 41.0019 7.08481 40.9963C7.11343 39.0375 8.71595 37.4524 10.6814 37.4524C12.6647 37.4524 14.278 39.0661 14.278 41.0495C14.278 43.0328 12.6647 44.6466 10.6809 44.6466ZM56.2874 44.6466C54.3041 44.6466 52.6903 43.0328 52.6903 41.0495C52.6903 39.0661 54.3041 37.4524 56.2874 37.4524C58.2708 37.4524 59.884 39.0661 59.884 41.0495C59.884 43.0328 58.2708 44.6466 56.2874 44.6466ZM64.6675 39.425C64.3542 39.8104 63.8895 40.0312 63.3927 40.0312H61.7539C61.2739 37.4503 59.0053 35.4895 56.2874 35.4895C53.569 35.4895 51.3005 37.4503 50.821 40.0312H16.1473C15.6679 37.4503 13.3993 35.4895 10.6809 35.4895C7.963 35.4895 5.69443 37.4503 5.21495 40.0312H3.17181C2.50524 40.0312 1.96289 39.4889 1.96289 38.8223V37.4524H2.69131C3.68553 37.4524 4.53561 36.7761 4.75848 35.8074L5.01866 34.6788C5.16435 34.0454 5.01611 33.3901 4.61126 32.8815C4.20641 32.3729 3.6017 32.081 2.95149 32.081H2.40914C2.80581 31.5632 3.43097 31.2284 4.13229 31.2284H5.85442H5.85954H11.3546C11.8964 31.2284 12.3361 30.7888 12.3361 30.2469C12.3361 29.7046 11.8964 29.2655 11.3546 29.2655H7.44007L8.65921 26.7996C10.0097 24.0715 12.7389 22.377 15.7818 22.377H16.1576L18.4875 29.2655H15.7721C15.2303 29.2655 14.7907 29.7046 14.7907 30.2469C14.7907 30.7888 15.2303 31.2284 15.7721 31.2284H19.8344H19.8554H19.8768H51.8944L60.8026 32.2722C61.7074 32.3785 62.5273 32.7629 63.1713 33.3415C62.401 33.4714 61.7718 34.0464 61.5852 34.8285L61.3081 35.993C61.1568 36.6279 61.302 37.2857 61.7068 37.7979C62.1112 38.3106 62.7179 38.604 63.3707 38.604H65.0223C64.9834 38.9015 64.8623 39.1852 64.6675 39.425Z" fill="#0C1421"/>
<path d="M10.6809 38.285C9.15709 38.285 7.91699 39.5251 7.91699 41.0494C7.91699 42.5737 9.15709 43.8133 10.6809 43.8133C12.2052 43.8133 13.4453 42.5737 13.4453 41.0494C13.4453 39.5251 12.2052 38.285 10.6809 38.285ZM10.6809 41.8504C10.2392 41.8504 9.87988 41.4911 9.87988 41.0494C9.87988 40.6073 10.2392 40.2479 10.6809 40.2479C11.123 40.2479 11.4824 40.6073 11.4824 41.0494C11.4824 41.4911 11.123 41.8504 10.6809 41.8504Z" fill="#0C1421"/>
<path d="M56.2874 38.285C54.7631 38.285 53.5229 39.5251 53.5229 41.0494C53.5229 42.5737 54.7631 43.8133 56.2874 43.8133C57.8112 43.8133 59.0513 42.5737 59.0513 41.0494C59.0513 39.5251 57.8112 38.285 56.2874 38.285ZM56.2874 41.8504C55.8452 41.8504 55.4858 41.4911 55.4858 41.0494C55.4858 40.6073 55.8452 40.2479 56.2874 40.2479C56.729 40.2479 57.0884 40.6073 57.0884 41.0494C57.0884 41.4911 56.729 41.8504 56.2874 41.8504Z" fill="#0C1421"/>
<path d="M40.4488 32.0809H39.2158C38.6735 32.0809 38.2344 32.5205 38.2344 33.0624C38.2344 33.6047 38.6735 34.0438 39.2158 34.0438H40.4488C40.9906 34.0438 41.4302 33.6047 41.4302 33.0624C41.4302 32.5205 40.9906 32.0809 40.4488 32.0809Z" fill="#0C1421"/>
<path d="M17.773 32.0809H16.5405C15.9982 32.0809 15.5591 32.5205 15.5591 33.0624C15.5591 33.6047 15.9982 34.0438 16.5405 34.0438H17.773C18.3153 34.0438 18.7544 33.6047 18.7544 33.0624C18.7544 32.5205 18.3153 32.0809 17.773 32.0809Z" fill="#0C1421"/>
</g>
<defs>
<clipPath id="clip0">
<rect width="67" height="67" fill="white"/>
</clipPath>
</defs>
</svg>
