<svg width="29" height="29" viewBox="0 0 29 29" fill="none" xmlns="http://www.w3.org/2000/svg">
<g clip-path="url(#clip0)">
<path d="M25.1627 2.66583H3.83713C1.72131 2.66583 0 4.3872 0 6.50296V22.4971C0 24.6129 1.72131 26.3342 3.83713 26.3342H25.1627C27.2785 26.3342 28.9998 24.6129 28.9998 22.4971V6.50296C28.9998 4.38714 27.2785 2.66583 25.1627 2.66583ZM26.6569 22.4971C26.6569 23.321 25.9866 23.9914 25.1627 23.9914H3.83713C3.01323 23.9914 2.34289 23.321 2.34289 22.4971V6.50296C2.34289 5.67906 3.01323 5.00872 3.83713 5.00872H25.1627C25.9866 5.00872 26.6569 5.67906 26.6569 6.50296V22.4971Z" fill="black"/>
<path d="M28.7881 5.83113C28.4172 5.30114 27.6868 5.17223 27.1566 5.54322L14.4999 14.4028L1.84327 5.54317C1.31328 5.17211 0.582841 5.30109 0.211844 5.83107C-0.159152 6.36106 -0.0302379 7.0915 0.499749 7.46249L13.8282 16.7925C14.0299 16.9337 14.2649 17.0042 14.5 17.0042C14.735 17.0042 14.97 16.9336 15.1717 16.7925L28.5002 7.46255C29.0302 7.09156 29.1591 6.36112 28.7881 5.83113Z" fill="black"/>
</g>
<defs>
<clipPath id="clip0">
<rect width="29" height="29" fill="white"/>
</clipPath>
</defs>
</svg>
