<svg width="25" height="39" viewBox="0 0 25 39" fill="none" xmlns="http://www.w3.org/2000/svg">
<path d="M20.465 39C20.465 39 24.005 39 24.005 35.4547V3.54531C24.005 0 20.465 0 20.465 0H4.53511C4.53511 0 0.995117 0 0.995117 3.54531V35.4547C0.995117 39 4.53511 39 4.53511 39H20.465ZM12.5001 37.5238C11.5231 37.5238 10.7301 36.7308 10.7301 35.7538C10.7301 34.7768 11.5231 33.9839 12.5001 33.9839C13.4771 33.9839 14.2701 34.7768 14.2701 35.7538C14.2701 36.7309 13.4771 37.5238 12.5001 37.5238ZM8.0751 2.16115C8.0751 1.94168 8.25035 1.76997 8.46628 1.76997H16.5322C16.7481 1.76997 16.9251 1.94522 16.9251 2.16115V2.26559C16.9251 2.48684 16.7498 2.65678 16.534 2.65678H8.46628C8.25212 2.65678 8.0751 2.48152 8.0751 2.26559V2.16115ZM2.76514 4.42497H22.2351V32.7448H2.76514V4.42497Z" fill="#000"/>
</svg>
