<svg width="12" height="14" viewBox="0 0 12 14" fill="none" xmlns="http://www.w3.org/2000/svg">
<path d="M6.54369 13.7762L11.5997 8.72033C11.744 8.57601 11.8232 8.38365 11.8232 8.17855C11.8232 7.97322 11.7439 7.78097 11.5997 7.63665L11.1405 7.17761C10.9965 7.0334 10.804 6.95396 10.5988 6.95396C10.3937 6.95396 10.1947 7.0334 10.0506 7.17761L7.09458 10.1271L7.09458 0.756335C7.09458 0.333834 6.76382 -2.21154e-07 6.34121 -2.39627e-07L5.69209 -2.68001e-07C5.26948 -2.86474e-07 4.90536 0.333834 4.90536 0.756335L4.90536 10.1606L1.93284 7.17773C1.78851 7.03352 1.60128 6.95407 1.39606 6.95407C1.19107 6.95407 1.00111 7.03352 0.856894 7.17773L0.399224 7.63676C0.2549 7.78109 0.17625 7.97333 0.17625 8.17866C0.17625 8.38376 0.255924 8.57612 0.400248 8.72044L5.45614 13.7763C5.60092 13.921 5.79419 14.0006 5.99963 14C6.20576 14.0004 6.39914 13.921 6.54369 13.7762Z" fill="#fff"/>
</svg>
