<svg width="18" height="20" viewBox="0 0 18 20" fill="none" xmlns="http://www.w3.org/2000/svg">
<path d="M9.77712 19.6803L17 12.4576C17.2062 12.2515 17.3193 11.9767 17.3193 11.6837C17.3193 11.3903 17.206 11.1157 17 10.9095L16.3441 10.2538C16.1382 10.0477 15.8633 9.93425 15.5701 9.93425C15.2771 9.93425 14.9929 10.0477 14.787 10.2538L10.5641 14.4674L10.5641 1.08051C10.5641 0.476937 10.0916 3.02016e-05 9.48786 3.01753e-05L8.56055 3.01347e-05C7.95681 3.01083e-05 7.43665 0.476937 7.43665 1.08051L7.43665 14.5152L3.19019 10.2539C2.98401 10.0479 2.71653 9.93441 2.42336 9.93441C2.13052 9.93441 1.85914 10.0479 1.65312 10.2539L0.999309 10.9097C0.793132 11.1159 0.680774 11.3905 0.680774 11.6838C0.680774 11.9768 0.794593 12.2516 1.00077 12.4578L8.22348 19.6805C8.4303 19.8872 8.7064 20.0008 8.99989 20C9.29436 20.0007 9.57062 19.8872 9.77712 19.6803Z" fill="white"/>
</svg>
