<svg width="12" height="14" viewBox="0 0 12 14" fill="none" xmlns="http://www.w3.org/2000/svg">
<path d="M6.54394 13.7762L11.5999 8.72033C11.7443 8.57601 11.8235 8.38365 11.8235 8.17855C11.8235 7.97322 11.7442 7.78097 11.5999 7.63665L11.1408 7.17761C10.9967 7.0334 10.8042 6.95396 10.599 6.95396C10.3939 6.95396 10.1949 7.0334 10.0509 7.17761L7.09483 10.1271L7.09483 0.756335C7.09483 0.333834 6.76406 -2.21154e-07 6.34145 -2.39627e-07L5.69233 -2.68001e-07C5.26972 -2.86474e-07 4.90561 0.333834 4.90561 0.756335L4.90561 10.1606L1.93308 7.17773C1.78876 7.03352 1.60152 6.95407 1.3963 6.95407C1.19131 6.95407 1.00135 7.03352 0.857138 7.17773L0.399468 7.63676C0.255144 7.78109 0.176494 7.97333 0.176494 8.17866C0.176494 8.38376 0.256168 8.57612 0.400492 8.72044L5.45639 13.7763C5.60116 13.921 5.79443 14.0006 5.99988 14C6.206 14.0004 6.39938 13.921 6.54394 13.7762Z" fill="#fff"/>
</svg>
