<svg width="23" height="32" viewBox="0 0 23 32" fill="none" xmlns="http://www.w3.org/2000/svg">
<path d="M11.8438 21.625C11.4988 21.625 11.2188 21.905 11.2188 22.25C11.2188 22.595 11.4988 22.875 11.8438 22.875C12.1888 22.875 12.4688 22.595 12.4688 22.25C12.4688 21.905 12.1888 21.625 11.8438 21.625Z" fill="#eb1c23"/>
<path d="M9.72662 21.0774C8.33394 20.3037 7.46875 18.8371 7.46875 17.25C7.46875 16.9048 7.18894 16.625 6.84375 16.625C6.49856 16.625 6.21875 16.9048 6.21875 17.25C6.21875 19.2908 7.33031 21.1761 9.11962 22.1701C9.21575 22.2235 9.31987 22.2489 9.42256 22.2489C9.64219 22.2489 9.85525 22.1329 9.9695 21.9273C10.1371 21.6255 10.0284 21.245 9.72662 21.0774Z" fill="#eb1c23"/>
<path d="M21.875 0H15.625C15.3193 0 15.0585 0.221125 15.0084 0.522687L14.0581 6.25H13.7269C13.5975 4.65538 12.9197 3.17413 11.7849 2.03106C10.4964 0.7325 8.7695 0.01175 6.92094 0.0006875C6.91744 0.0005625 6.91394 0.000625 6.91044 0.0005625C6.909 0.0005625 6.90762 0.000375 6.90619 0.000375C6.90537 0.000375 6.90463 0.0005 6.90388 0.0005C6.89438 0.00025 6.88487 0 6.875 0C5.03119 0 3.2975 0.733687 1.99363 2.06562C0.727063 3.35787 0.0194376 5.06156 0.000687599 6.86338C0.000625099 6.86494 0.000687634 6.86644 0.000625134 6.868C0.000625134 6.87038 0.000249863 6.87262 0.000249863 6.875C0.000249863 6.87663 0.000500202 6.87819 0.000500202 6.87975C0.000250202 6.89906 0 6.91844 0 6.9375C0 8.77381 0.715125 10.5002 2.01369 11.7988C2.01369 11.7988 2.01375 11.7988 2.01375 11.7989C2.65706 12.4423 3.42806 12.9542 4.26519 13.2986C4.16912 13.637 4.08631 13.9689 4.01694 14.3015C3.82375 15.2254 3.72644 16.1526 3.71944 17.1301C3.71875 17.1699 3.71875 17.2103 3.71875 17.25C3.71875 19.4207 4.564 21.4611 6.09856 22.9949C7.18062 24.0775 8.51481 24.8164 9.96875 25.1583V30.75H5.59375C5.24856 30.75 4.96875 31.0299 4.96875 31.375C4.96875 31.7201 5.24856 32 5.59375 32H18.0938C18.4389 32 18.7188 31.7201 18.7188 31.375C18.7188 31.0299 18.4389 30.75 18.0938 30.75H13.7188V25.1562C17.2979 24.3075 19.9688 21.085 19.9688 17.25V17.2025C19.9662 16.3573 19.8865 15.4087 19.7448 14.5104C19.7476 14.4864 19.7494 14.4622 19.7494 14.4374C19.7494 14.3411 19.727 14.2502 19.6881 14.1688C19.576 13.5366 19.4364 12.955 19.2718 12.4391L17.4393 6.68531C17.3567 6.42606 17.1159 6.25 16.8438 6.25H15.3253L16.1549 1.25H21.875C22.2202 1.25 22.5 0.970187 22.5 0.625C22.5 0.279813 22.2202 0 21.875 0ZM12.4718 6.25H8.46963L11.315 3.38438C11.9673 4.20981 12.3669 5.19731 12.4718 6.25ZM7.53125 1.28813C8.60369 1.40856 9.60425 1.82463 10.4356 2.49594L7.53125 5.42088V1.28813ZM7.30844 7.5H13.8507L12.8032 13.8125H5.41956C5.47587 13.604 5.53731 13.3933 5.60612 13.1772C5.60731 13.1736 5.60838 13.1699 5.6095 13.1663L7.30844 7.5ZM6.28125 1.28219V5.45981L3.3435 2.52206C4.18931 1.82494 5.20225 1.39719 6.28125 1.28219ZM2.46994 3.41637L5.30356 6.25H1.29275C1.41744 5.21462 1.82262 4.23919 2.46994 3.41637ZM1.27769 7.5H5.45238C5.41206 7.52494 5.37369 7.55438 5.33869 7.58938L2.48063 10.4479C1.80038 9.59975 1.38456 8.58325 1.27769 7.5ZM3.36444 11.3319L5.49275 9.20312L4.62588 12.0941C4.1755 11.8971 3.75019 11.64 3.36444 11.3319ZM12.4688 30.75H11.2188V25.375H12.4688V30.75ZM18.7188 17.2044V17.25H18.7188C18.7188 21.0409 15.6346 24.125 11.8438 24.125C10.007 24.125 8.28062 23.4099 6.98244 22.1111C5.68387 20.8131 4.96875 19.0868 4.96875 17.25C4.96875 17.2173 4.96875 17.1839 4.96937 17.1451C4.97456 16.4252 5.03337 15.7394 5.1465 15.0625H13.3317C13.3324 15.0625 13.3332 15.0626 13.3339 15.0626C13.3346 15.0626 13.3353 15.0625 13.336 15.0625H18.5627C18.6616 15.789 18.7168 16.5335 18.7188 17.2044ZM16.3869 7.5L18.0808 12.8187C18.1766 13.1188 18.2651 13.4551 18.3436 13.8125H14.0704L15.1179 7.5H16.3869Z" fill="#eb1c23"/>
</svg>
