<svg width="12" height="12" viewBox="0 0 12 12" fill="none" xmlns="http://www.w3.org/2000/svg">
<path d="M6 0C2.6916 0 0 2.69164 0 6.00004C0 9.30844 2.6916 12 6 12C9.3084 12 12 9.30844 12 6.00004C12 2.69164 9.3084 0 6 0ZM6 10.9091C3.29309 10.9091 1.09091 8.70691 1.09091 6.00004C1.09091 3.29316 3.29309 1.09091 6 1.09091C8.70691 1.09091 10.9091 3.29316 10.9091 6.00004C10.9091 8.70691 8.70687 10.9091 6 10.9091Z" fill="#C4C4C4"/>
<path d="M6.00008 2.54544C5.59913 2.54544 5.27295 2.87184 5.27295 3.27304C5.27295 3.67388 5.59913 3.99999 6.00008 3.99999C6.40102 3.99999 6.7272 3.67388 6.7272 3.27304C6.7272 2.87184 6.40102 2.54544 6.00008 2.54544Z" fill="#C4C4C4"/>
<path d="M6.00004 5.09091C5.69881 5.09091 5.45459 5.33513 5.45459 5.63637V8.90909C5.45459 9.21033 5.69881 9.45455 6.00004 9.45455C6.30128 9.45455 6.5455 9.21033 6.5455 8.90909V5.63637C6.5455 5.33513 6.30128 5.09091 6.00004 5.09091Z" fill="#C4C4C4"/>
</svg>
