<svg width="16" height="16" viewBox="0 0 16 16" fill="none" xmlns="http://www.w3.org/2000/svg">
<path d="M11.9984 0.00332907L9.92359 0C7.5926 0 6.08621 1.54552 6.08621 3.93762V5.75313H4.00007C3.81981 5.75313 3.67383 5.89927 3.67383 6.07954V8.71001C3.67383 8.89028 3.81997 9.03625 4.00007 9.03625H6.08621V15.6738C6.08621 15.854 6.23219 16 6.41246 16H9.13428C9.31454 16 9.46052 15.8539 9.46052 15.6738V9.03625H11.8997C12.08 9.03625 12.226 8.89028 12.226 8.71001L12.2269 6.07954C12.2269 5.99299 12.1925 5.91009 12.1314 5.84884C12.0703 5.78758 11.9871 5.75313 11.9005 5.75313H9.46052V4.2141C9.46052 3.47438 9.63679 3.09886 10.6004 3.09886L11.9981 3.09836C12.1782 3.09836 12.3242 2.95222 12.3242 2.77211V0.329578C12.3242 0.149642 12.1783 0.00366197 11.9984 0.00332907Z" fill="white"/>
</svg>
