<svg width="20" height="18" viewBox="0 0 20 18" fill="none" xmlns="http://www.w3.org/2000/svg">
<path d="M19.6803 8.22297L12.4576 1.0001C12.2514 0.793925 11.9766 0.680756 11.6836 0.680756C11.3903 0.680756 11.1157 0.794088 10.9095 1.0001L10.2537 1.65603C10.0477 1.86188 9.93422 2.13684 9.93422 2.43001C9.93422 2.72302 10.0477 3.00724 10.2537 3.21309L14.4674 7.43598H1.08048C0.476906 7.43598 0 7.9085 0 8.51224V9.43954C0 10.0433 0.476906 10.5634 1.08048 10.5634H14.5152L10.2539 14.8099C10.0479 15.0161 9.93438 15.2836 9.93438 15.5767C9.93438 15.8696 10.0479 16.141 10.2539 16.347L10.9097 17.0008C11.1158 17.207 11.3905 17.3193 11.6838 17.3193C11.9768 17.3193 12.2516 17.2055 12.4578 16.9993L19.6805 9.77661C19.8871 9.56979 20.0008 9.29369 20 9.0002C20.0006 8.70573 19.8871 8.42947 19.6803 8.22297Z" fill="#eb1c23"/>
</svg>
