<svg width="16" height="24" viewBox="0 0 16 24" fill="none" xmlns="http://www.w3.org/2000/svg">
<path d="M12.9014 24C12.9014 24 15.0799 24 15.0799 21.8183V2.18173C15.0799 0 12.9014 0 12.9014 0H3.09838C3.09838 0 0.919922 0 0.919922 2.18173V21.8183C0.919922 24 3.09838 24 3.09838 24H12.9014ZM7.99989 23.0916C7.39865 23.0916 6.91068 22.6036 6.91068 22.0024C6.91068 21.4011 7.39865 20.9132 7.99989 20.9132C8.60114 20.9132 9.08914 21.4011 9.08914 22.0024C9.08914 22.6036 8.60117 23.0916 7.99989 23.0916ZM5.27683 1.32994C5.27683 1.19488 5.38468 1.08921 5.51756 1.08921H10.4812C10.6141 1.08921 10.723 1.19706 10.723 1.32994V1.39421C10.723 1.53036 10.6151 1.63494 10.4823 1.63494H5.51756C5.38577 1.63494 5.27683 1.52709 5.27683 1.39421V1.32994ZM2.00916 2.72306H13.9907V20.1507H2.00916V2.72306Z" fill="#919499"/>
</svg>
