<svg width="16" height="16" viewBox="0 0 16 16" fill="none" xmlns="http://www.w3.org/2000/svg">
<path d="M14.4 0H1.6C0.72 0 0 0.72 0 1.6V14.4C0 15.28 0.72 16 1.6 16H14.4C15.28 16 16 15.28 16 14.4V1.6C16 0.72 15.28 0 14.4 0ZM8 4.8C9.76 4.8 11.2 6.24 11.2 8C11.2 9.76 9.76 11.2 8 11.2C6.24 11.2 4.8 9.76 4.8 8C4.8 6.24 6.24 4.8 8 4.8ZM2 14.4C1.76 14.4 1.6 14.24 1.6 14V7.2H3.28C3.2 7.44 3.2 7.76 3.2 8C3.2 10.64 5.36 12.8 8 12.8C10.64 12.8 12.8 10.64 12.8 8C12.8 7.76 12.8 7.44 12.72 7.2H14.4V14C14.4 14.24 14.24 14.4 14 14.4H2ZM14.4 3.6C14.4 3.84 14.24 4 14 4H12.4C12.16 4 12 3.84 12 3.6V2C12 1.76 12.16 1.6 12.4 1.6H14C14.24 1.6 14.4 1.76 14.4 2V3.6Z" fill="#919499"/>
</svg>
