<svg width="25" height="25" viewBox="0 0 25 25" fill="none" xmlns="http://www.w3.org/2000/svg">
<path d="M24.6854 21.4808L18.6825 15.2972C18.252 14.8535 17.714 14.6759 17.4809 14.9028C17.2471 15.128 16.7087 14.9508 16.2782 14.5071L16.1924 14.4184C18.8791 10.895 18.6183 5.85028 15.392 2.63328C11.8708 -0.877759 6.16164 -0.877759 2.64089 2.63328C-0.880297 6.14432 -0.880297 11.8362 2.64089 15.3473C5.92214 18.6195 11.101 18.8387 14.6418 16.0125L14.6795 16.0517C15.1091 16.4953 15.2692 17.0374 15.0346 17.2629C14.8011 17.4886 14.9599 18.031 15.3908 18.4738L21.3905 24.6598C21.8209 25.1023 22.5302 25.1154 22.9756 24.6858L24.6593 23.0613C25.103 22.6328 25.115 21.926 24.6854 21.4808ZM13.4106 13.3714C10.9875 15.788 7.04432 15.788 4.62155 13.3722C2.19841 10.9561 2.19878 7.02386 4.62155 4.60815C7.04432 2.192 10.9875 2.19237 13.4098 4.60852C15.8333 7.0243 15.8333 10.9557 13.4106 13.3714Z" fill="#3E4B60"/>
</svg>
