<svg width="52" height="71" viewBox="0 0 52 71" fill="none" xmlns="http://www.w3.org/2000/svg">
<path d="M38.0581 50.3008C38.0128 50.3008 37.9676 50.3008 37.9224 50.3008L34.9382 50.1877L32.7228 52.1922C32.0295 52.8178 31.1327 53.1643 30.1983 53.1643C29.7085 53.1643 29.2262 53.074 28.7741 52.8856L26.0085 51.7552L23.243 52.8856C22.7908 53.074 22.3085 53.1643 21.8187 53.1643C20.8843 53.1643 19.9876 52.8177 19.2943 52.1922L17.0788 50.1877L14.0946 50.3008C14.0494 50.3008 14.0042 50.3008 13.959 50.3008C12.5573 50.3008 11.2838 49.5322 10.6282 48.2888L9.23413 45.6436L9.12109 45.606V68.9441C9.12109 70.3457 10.5982 71.2574 11.849 70.6244L25.1721 63.9328C25.7071 63.6691 26.3326 63.6691 26.8676 63.9328L40.1681 70.632C41.419 71.2649 42.896 70.3532 42.896 68.9515V45.6136L42.783 45.6513L41.3889 48.2964C40.7407 49.5322 39.4596 50.3008 38.0581 50.3008Z" fill="#EB1C23"/>
<path d="M51.7118 26.6462C52.0961 26.0358 52.0961 25.2596 51.7118 24.6417L50.1217 22.1097C49.8579 21.6952 49.775 21.1903 49.873 20.7156L50.506 17.7918C50.6567 17.0834 50.3929 16.3524 49.8201 15.9078L47.4615 14.0767C47.0772 13.7752 46.8209 13.3382 46.7532 12.8483L46.3387 9.88682C46.2407 9.17093 45.7359 8.57561 45.0501 8.34954L42.2091 7.43019C41.742 7.27947 41.3501 6.9479 41.124 6.51837L39.7299 3.87334C39.4059 3.25542 38.7578 2.8711 38.0645 2.8711C38.0419 2.8711 38.0193 2.8711 37.9967 2.8711L35.0125 2.98413C34.9899 2.98413 34.9673 2.98413 34.9448 2.98413C34.4776 2.98413 34.0254 2.81081 33.6788 2.49431L31.4633 0.48982C31.1091 0.173321 30.657 0 30.1973 0C29.9562 0 29.715 0.0452141 29.4889 0.143178L26.7233 1.27353C26.4973 1.36396 26.2562 1.41671 26.0151 1.41671C25.7739 1.41671 25.5328 1.37149 25.3067 1.27353L22.5411 0.143178C22.3075 0.0527498 22.0664 0 21.8328 0C21.3731 0 20.9209 0.165785 20.5668 0.48982L18.3514 2.49431C18.0047 2.81081 17.5526 2.98413 17.0854 2.98413C17.0627 2.98413 17.0401 2.98413 17.0175 2.98413L14.0334 2.8711C14.0108 2.8711 13.9881 2.8711 13.9656 2.8711C13.2723 2.8711 12.6242 3.25542 12.3002 3.87334L10.9061 6.51837C10.68 6.95544 10.2882 7.27947 9.82103 7.43019L6.98008 8.34954C6.29426 8.56808 5.78944 9.17093 5.6914 9.88682L5.27694 12.8483C5.20919 13.3382 4.9529 13.7752 4.56866 14.0767L2.17985 15.9078C1.60706 16.3524 1.34331 17.0834 1.49402 17.7918L2.12702 20.7156C2.23252 21.1979 2.14209 21.6952 1.87834 22.1097L0.28824 24.6417C-0.09608 25.2521 -0.09608 26.0283 0.28824 26.6462L1.87834 29.1782C2.14209 29.5926 2.22499 30.0975 2.12702 30.5723L1.49402 33.4962C1.34331 34.2045 1.60706 34.9355 2.17985 35.3801L4.53852 37.2113C4.92284 37.5127 5.17905 37.9497 5.24687 38.4395L5.66133 41.4011C5.7593 42.117 6.26419 42.7123 6.94994 42.9384L9.10514 43.6316L9.79843 43.8577C10.2656 44.0084 10.6575 44.34 10.8836 44.7695L12.2777 47.4145C12.6017 48.0325 13.2497 48.4169 13.9431 48.4169C13.9657 48.4169 13.9883 48.4169 14.0109 48.4169L16.995 48.3038C17.0176 48.3038 17.0402 48.3038 17.0628 48.3038C17.53 48.3038 17.9821 48.4772 18.3288 48.7936L20.5442 50.7981C20.8984 51.1147 21.3506 51.288 21.8103 51.288C22.0514 51.288 22.2925 51.2427 22.5186 51.1448L25.2842 50.0144C25.5103 49.9241 25.7514 49.8714 25.9925 49.8714C26.2336 49.8714 26.4747 49.9166 26.7008 50.0144L29.4664 51.1448C29.7 51.2353 29.9412 51.288 30.1748 51.288C30.6344 51.288 31.0866 51.1222 31.4408 50.7981L33.6562 48.7936C34.0029 48.4772 34.455 48.3038 34.9222 48.3038C34.9449 48.3038 34.9675 48.3038 34.99 48.3038L37.9742 48.4169C37.9968 48.4169 38.0194 48.4169 38.0419 48.4169C38.7352 48.4169 39.3833 48.0325 39.7074 47.4145L41.1015 44.7695C41.3276 44.3325 41.7194 44.0084 42.1866 43.8577L42.8799 43.6316L45.0351 42.9384C45.7209 42.7199 46.2258 42.117 46.3237 41.4011L46.7382 38.4395C46.806 37.9497 47.0622 37.5127 47.4465 37.2113L49.8052 35.3801C50.3779 34.9355 50.6417 34.2045 50.491 33.4962L49.858 30.5723C49.7526 30.0901 49.843 29.5926 50.1067 29.1782L51.7118 26.6462ZM44.2288 33.3454C43.8444 34.2421 43.4074 35.1087 42.9025 35.9377C42.0886 37.2714 41.1165 38.5148 39.9937 39.6302C38.1775 41.4463 36.0601 42.8705 33.7089 43.8652C31.2674 44.8976 28.6751 45.4175 26.0075 45.4175C23.3399 45.4175 20.7475 44.8977 18.3061 43.8652C15.9473 42.8705 13.8373 41.4462 12.0213 39.6302C10.8986 38.5074 9.92638 37.2714 9.11253 35.9377C8.60764 35.1088 8.16296 34.2497 7.78617 33.3454C6.75386 30.9038 6.23382 28.3115 6.23382 25.6439C6.23382 22.9763 6.75378 20.384 7.78617 17.9425C8.78088 15.5838 10.2052 13.4738 12.0212 11.6577C13.8373 9.84161 15.9549 8.41736 18.306 7.42265C20.7475 6.39026 23.3398 5.8703 26.0074 5.8703C28.675 5.8703 31.2674 6.39026 33.7089 7.42265C36.0675 8.41736 38.1775 9.84161 39.9936 11.6577C41.8097 13.4738 43.234 15.5913 44.2287 17.9425C45.261 20.384 45.781 22.9763 45.781 25.6439C45.7812 28.3116 45.2611 30.9038 44.2288 33.3454Z" fill="#EB1C23"/>
<path d="M26.0009 8.12354C16.3251 8.12354 8.48047 15.9682 8.48047 25.644C8.48047 27.2491 8.699 28.809 9.10593 30.286C11.1406 37.7086 17.9378 43.1646 26.0009 43.1646C34.0641 43.1646 40.8613 37.7087 42.8959 30.286C43.3028 28.809 43.5214 27.2491 43.5214 25.644C43.5214 15.9682 35.6768 8.12354 26.0009 8.12354ZM33.8004 33.7599C34.1395 35.35 32.4439 36.5933 31.0272 35.787L26.0009 32.9385L20.9671 35.787C19.5579 36.5858 17.8549 35.3424 18.194 33.7599L19.3997 28.078L15.4661 24.5287L15.029 24.1293C13.8308 23.0442 14.4638 21.0548 16.0613 20.8588L21.7884 20.158L24.2828 14.8152C24.961 13.3684 27.0183 13.3684 27.6965 14.8152L30.1908 20.158L35.9179 20.8588C37.5231 21.0548 38.1485 23.0442 36.9503 24.1293L36.5132 24.5287L32.5796 28.078L33.8004 33.7599Z" fill="#EB1C23"/>
</svg>
