<svg width="20" height="18" viewBox="0 0 20 18" fill="none" xmlns="http://www.w3.org/2000/svg">
<path d="M0.319683 8.223L7.54239 1.00013C7.74856 0.793956 8.02336 0.680786 8.31636 0.680786C8.60969 0.680786 8.88432 0.794118 9.0905 1.00013L9.74627 1.65606C9.95228 1.86191 10.0658 2.13687 10.0658 2.43004C10.0658 2.72305 9.95228 3.00727 9.74627 3.21312L5.53265 7.43601H18.9195C19.5231 7.43601 20 7.90853 20 8.51227V9.43958C20 10.0433 19.5231 10.5635 18.9195 10.5635H5.48484L9.74611 14.8099C9.95212 15.0161 10.0656 15.2836 10.0656 15.5768C10.0656 15.8696 9.95212 16.141 9.74611 16.347L9.09034 17.0008C8.88416 17.207 8.60953 17.3193 8.3162 17.3193C8.02319 17.3193 7.7484 17.2055 7.54222 16.9993L0.319521 9.77664C0.112856 9.56982 -0.000801086 9.29372 1.14441e-05 9.00023C-0.000638962 8.70576 0.112856 8.4295 0.319683 8.223Z" fill="#eb1c24"/>
</svg>
