<svg width="18" height="18" viewBox="0 0 18 18" fill="none" xmlns="http://www.w3.org/2000/svg">
<path d="M9 0C4.0374 0 0 4.03745 0 9.00006C0 13.9627 4.0374 18 9 18C13.9626 18 18 13.9627 18 9.00006C18 4.03745 13.9626 0 9 0ZM9 16.3636C4.93964 16.3636 1.63636 13.0604 1.63636 9.00006C1.63636 4.93975 4.93964 1.63636 9 1.63636C13.0604 1.63636 16.3636 4.93975 16.3636 9.00006C16.3636 13.0604 13.0603 16.3636 9 16.3636Z" fill="#C4C4C4"/>
<path d="M9.00011 3.81818C8.3987 3.81818 7.90942 4.30778 7.90942 4.90958C7.90942 5.51083 8.3987 5.99999 9.00011 5.99999C9.60153 5.99999 10.0908 5.51083 10.0908 4.90958C10.0908 4.30778 9.60153 3.81818 9.00011 3.81818Z" fill="#C4C4C4"/>
<path d="M9.00007 7.63635C8.54821 7.63635 8.18188 8.00268 8.18188 8.45453V13.3636C8.18188 13.8155 8.54821 14.1818 9.00007 14.1818C9.45192 14.1818 9.81825 13.8155 9.81825 13.3636V8.45453C9.81825 8.00268 9.45192 7.63635 9.00007 7.63635Z" fill="#C4C4C4"/>
</svg>
