<svg width="94" height="52" viewBox="0 0 94 52" fill="none" xmlns="http://www.w3.org/2000/svg">
<path d="M92.8882 1.37273C92.0891 0.500292 90.9521 0 89.769 0H88.5138C85.2221 0 82.5229 2.47263 82.2352 5.75161L80.8772 21.2247C80.7569 22.5959 79.628 23.6301 78.2512 23.6301H66.4965C62.7299 23.6301 59.6655 26.6945 59.6655 30.4611V31.1398C59.6655 33.4155 61.5167 35.2666 63.7923 35.2666H66.3118L63.8307 43.3695C63.8289 43.3756 63.827 43.3816 63.8252 43.3877L61.9287 49.5814C61.706 50.3086 62.115 51.0784 62.8421 51.3011C62.9764 51.3423 63.1123 51.3619 63.2458 51.3619C63.8349 51.3619 64.3804 50.9806 64.5618 50.3878L66.1612 45.1643H85.0475L86.647 50.3878C86.8284 50.9806 87.3736 51.3619 87.963 51.3619C88.0966 51.3619 88.2325 51.3423 88.3667 51.3011C89.0937 51.0784 89.5028 50.3084 89.2801 49.5814L84.7789 34.8818C85.5693 34.658 86.3325 34.3397 87.0485 33.9293C87.7082 33.5511 87.9364 32.7097 87.5582 32.0501C87.18 31.3904 86.3384 31.1622 85.6787 31.5404C84.5691 32.1766 83.3032 32.5129 82.0179 32.5129H68.1745C68.1699 32.5129 68.1654 32.5129 68.1609 32.5129H63.7927C63.0357 32.5129 62.4198 31.8971 62.4198 31.14V30.4613C62.4198 28.2132 64.2488 26.3842 66.4969 26.3842H78.2516C81.0667 26.3842 83.375 24.2696 83.621 21.4656L84.9788 5.9923C85.1408 4.14609 86.6606 2.75372 88.5139 2.75372H89.7692C90.1881 2.75372 90.575 2.92391 90.8579 3.2329C91.141 3.54188 91.2768 3.94193 91.2401 4.35943L89.3598 25.7868C89.3135 26.3152 89.2105 26.838 89.0539 27.3407C88.8277 28.0668 89.2331 28.8388 89.9592 29.0649C90.6862 29.291 91.4571 28.8855 91.6835 28.1597C91.8985 27.4691 92.0397 26.7518 92.1034 26.0275L93.9837 4.60011C94.0866 3.42163 93.6874 2.24516 92.8882 1.37273ZM69.1915 35.2668H82.0164L84.2037 42.4104H67.0039L69.1915 35.2668Z" fill="#0C1421"/>
<path d="M27.5027 23.6311H15.7479C14.3712 23.6311 13.2424 22.5971 13.122 21.2257L11.7642 5.75259C11.4765 2.47361 8.77727 0.000976562 5.48562 0.000976562H4.23039C3.04732 0.000976562 1.91032 0.501268 1.11114 1.3737C0.311961 2.24614 -0.0871714 3.42261 0.0160081 4.60146L1.89637 26.0288C2.11834 28.5575 3.2713 30.8942 5.14304 32.609C6.31895 33.6863 7.71518 34.4591 9.21991 34.885L4.7193 49.5826C4.4966 50.3098 4.90565 51.0796 5.63268 51.3023C5.76707 51.3434 5.90293 51.3631 6.0364 51.3631C6.62555 51.3631 7.17101 50.9817 7.3524 50.3889L8.95187 45.1655H27.8381L29.4376 50.3889C29.619 50.9817 30.1642 51.3631 30.7536 51.3631C30.8872 51.3631 31.0231 51.3434 31.1573 51.3023C31.8843 51.0796 32.2934 50.3096 32.0707 49.5826L30.1742 43.3889C30.1723 43.3828 30.1705 43.3767 30.1687 43.3707L27.6876 35.2678H30.207C32.4827 35.2678 34.3337 33.4166 34.3337 31.141V30.4622C34.3337 26.6954 31.2693 23.6311 27.5027 23.6311ZM9.79511 42.4112L11.9824 35.2676H24.8074L26.9947 42.4112H9.79511ZM31.5798 31.1408C31.5798 31.8979 30.964 32.5137 30.207 32.5137H25.8397C25.8342 32.5137 25.8289 32.5137 25.8234 32.5137H11.9817C11.6872 32.5137 11.3975 32.4948 11.1122 32.4617C11.112 32.4617 11.1117 32.4617 11.1113 32.4617C7.66635 32.0635 4.95026 29.3287 4.63962 25.7878L2.75926 4.36058C2.72254 3.94291 2.8584 3.54286 3.1415 3.23387C3.42442 2.92488 3.81107 2.75469 4.23021 2.75469H5.48544C7.33881 2.75469 8.8586 4.14688 9.02053 5.99328L10.3784 21.4663V21.4662C10.6244 24.2702 12.9327 26.3848 15.7478 26.3848H27.5025C29.7506 26.3848 31.5796 28.2138 31.5796 30.4619V31.1408H31.5798Z" fill="#0C1421"/>
<path d="M57.4551 46.8204C56.8868 44.6362 54.9139 43.1107 52.657 43.1107H51.8048V18.044H68.7604C69.7371 18.044 70.6512 17.6098 71.2684 16.8528C71.8857 16.0957 72.1271 15.1127 71.9303 14.1558C71.338 11.2764 68.7747 9.18652 65.8352 9.18652H37.2078C36.4472 9.18652 35.8309 9.80303 35.8309 10.5635C35.8309 11.3239 36.4472 11.9404 37.2078 11.9404H65.8352C67.4739 11.9404 68.9026 13.1055 69.2327 14.7105C69.273 14.9058 69.1881 15.0463 69.1342 15.1127C69.08 15.179 68.9596 15.2903 68.7604 15.2903H25.2388C25.0396 15.2903 24.9192 15.179 24.865 15.1127C24.811 15.0465 24.7262 14.9058 24.7664 14.7107C25.0965 13.1055 26.5253 11.9404 28.164 11.9404H30.7497C31.5104 11.9404 32.1267 11.3239 32.1267 10.5635C32.1267 9.80303 31.5104 9.18652 30.7497 9.18652H28.164C25.2243 9.18652 22.661 11.2764 22.0689 14.156C21.8723 15.1129 22.1135 16.0959 22.7307 16.8528C23.348 17.6098 24.2621 18.044 25.2388 18.044H42.1946V43.1109H41.3423C39.0854 43.1109 37.1125 44.6364 36.5443 46.8204L36.221 48.0628C36.0141 48.8587 36.1837 49.688 36.6866 50.3386C37.1896 50.9891 37.9497 51.3623 38.7719 51.3623H55.2273C56.0496 51.3623 56.8095 50.9893 57.3126 50.3386C57.8154 49.6881 57.9851 48.8587 57.7782 48.0628L57.4551 46.8204ZM44.9485 18.044H49.0511V43.1109H44.9485V18.044ZM38.9246 48.6082L39.2095 47.5137C39.462 46.5428 40.339 45.8648 41.3422 45.8648H52.6568C53.66 45.8648 54.537 46.5428 54.7895 47.5137L55.0744 48.6082H38.9246Z" fill="#0C1421"/>
</svg>
