<svg width="20" height="18" viewBox="0 0 20 18" fill="none" xmlns="http://www.w3.org/2000/svg">
<path d="M19.6803 8.223L12.4576 1.00013C12.2514 0.793956 11.9766 0.680786 11.6836 0.680786C11.3903 0.680786 11.1157 0.794118 10.9095 1.00013L10.2537 1.65606C10.0477 1.86191 9.93422 2.13687 9.93422 2.43004C9.93422 2.72305 10.0477 3.00727 10.2537 3.21312L14.4674 7.43601H1.08048C0.476906 7.43601 0 7.90853 0 8.51227V9.43958C0 10.0433 0.476906 10.5635 1.08048 10.5635H14.5152L10.2539 14.8099C10.0479 15.0161 9.93438 15.2836 9.93438 15.5768C9.93438 15.8696 10.0479 16.141 10.2539 16.347L10.9097 17.0008C11.1158 17.207 11.3905 17.3193 11.6838 17.3193C11.9768 17.3193 12.2516 17.2055 12.4578 16.9993L19.6805 9.77664C19.8871 9.56982 20.0008 9.29372 20 9.00023C20.0006 8.70576 19.8871 8.4295 19.6803 8.223Z" fill="#EB1C23"/>
</svg>
