<svg width="20" height="20" viewBox="0 0 20 20" fill="none" xmlns="http://www.w3.org/2000/svg">
<path d="M0.319683 9.22294L7.54239 2.00007C7.74856 1.79389 8.02336 1.68073 8.31636 1.68073C8.60969 1.68073 8.88432 1.79406 9.0905 2.00007L9.74627 2.656C9.95228 2.86185 10.0658 3.13681 10.0658 3.42998C10.0658 3.72298 9.95228 4.00721 9.74627 4.21306L5.53265 8.43595H18.9195C19.5231 8.43595 20 8.90847 20 9.51221V10.4395C20 11.0432 19.5231 11.5634 18.9195 11.5634H5.48484L9.74611 15.8099C9.95212 16.0161 10.0656 16.2835 10.0656 16.5767C10.0656 16.8695 9.95212 17.1409 9.74611 17.3469L9.09034 18.0008C8.88416 18.2069 8.60953 18.3193 8.3162 18.3193C8.02319 18.3193 7.7484 18.2055 7.54222 17.9993L0.319521 10.7766C0.112856 10.5698 -0.000801086 10.2937 1.14441e-05 10.0002C-0.000638962 9.7057 0.112856 9.42944 0.319683 9.22294Z" fill="#0C1421"/>
</svg>
