<svg width="20" height="18" viewBox="0 0 20 18" fill="none" xmlns="http://www.w3.org/2000/svg">
<path d="M19.6803 8.22295L12.4576 1.00009C12.2514 0.79391 11.9766 0.68074 11.6836 0.68074C11.3903 0.68074 11.1157 0.794073 10.9095 1.00009L10.2537 1.65602C10.0477 1.86187 9.93422 2.13683 9.93422 2.42999C9.93422 2.723 10.0477 3.00723 10.2537 3.21308L14.4674 7.43597H1.08048C0.476906 7.43597 0 7.90849 0 8.51222V9.43953C0 10.0433 0.476906 10.5634 1.08048 10.5634H14.5152L10.2539 14.8099C10.0479 15.0161 9.93438 15.2835 9.93438 15.5767C9.93438 15.8696 10.0479 16.1409 10.2539 16.347L10.9097 17.0008C11.1158 17.2069 11.3905 17.3193 11.6838 17.3193C11.9768 17.3193 12.2516 17.2055 12.4578 16.9993L19.6805 9.7766C19.8871 9.56977 20.0008 9.29368 20 9.00018C20.0006 8.70571 19.8871 8.42946 19.6803 8.22295Z" fill="#EB1C23"/>
</svg>
