<svg width="14" height="12" viewBox="0 0 14 12" fill="none" xmlns="http://www.w3.org/2000/svg">
<path d="M13.7762 5.45609L8.72033 0.400087C8.57601 0.255763 8.38365 0.176544 8.17855 0.176544C7.97321 0.176544 7.78097 0.255877 7.63665 0.400087L7.17761 0.859238C7.0334 1.00333 6.95396 1.1958 6.95396 1.40102C6.95396 1.60613 7.0334 1.80508 7.17761 1.94918L10.1271 4.9052H0.756335C0.333834 4.9052 0 5.23597 0 5.65858V6.3077C0 6.73031 0.333834 7.09442 0.756335 7.09442H10.1606L7.17773 10.0669C7.03352 10.2113 6.95407 10.3985 6.95407 10.6037C6.95407 10.8087 7.03352 10.9987 7.17773 11.1429L7.63676 11.6006C7.78109 11.7449 7.97333 11.8235 8.17866 11.8235C8.38376 11.8235 8.57612 11.7439 8.72044 11.5995L13.7763 6.54365C13.921 6.39887 14.0006 6.2056 14 6.00015C14.0004 5.79403 13.921 5.60065 13.7762 5.45609Z" fill="#EB1C23"/>
</svg>
