<svg width="22" height="22" viewBox="0 0 22 22" fill="none" xmlns="http://www.w3.org/2000/svg">
<path d="M21.6922 18.9031L16.4249 13.4615C16.0472 13.0711 15.5751 12.9148 15.3706 13.1144C15.1654 13.3126 14.693 13.1567 14.3153 12.7663L14.2399 12.6882C16.5974 9.58758 16.3686 5.14824 13.5377 2.31728C10.4479 -0.772428 5.43835 -0.772428 2.34902 2.31728C-0.74069 5.407 -0.74069 10.4159 2.34902 13.5056C5.2282 16.3852 9.77245 16.578 12.8794 14.091L12.9124 14.1255C13.2894 14.5159 13.4299 14.9929 13.224 15.1914C13.0191 15.3899 13.1585 15.8673 13.5366 16.2569L18.8011 21.7006C19.1788 22.09 19.8011 22.1016 20.1919 21.7235L21.6694 20.294C22.0587 19.9168 22.0692 19.2949 21.6922 18.9031ZM11.7991 11.7669C9.67284 13.8934 6.21286 13.8934 4.08697 11.7676C1.96076 9.64136 1.96109 6.18099 4.08697 4.05517C6.21286 1.92896 9.67284 1.92928 11.7983 4.05549C13.9249 6.18138 13.9249 9.64104 11.7991 11.7669Z" fill="white"/>
</svg>
