<svg width="21" height="20" viewBox="0 0 21 20" fill="none" xmlns="http://www.w3.org/2000/svg">
<path fill-rule="evenodd" clip-rule="evenodd" d="M18.1456 0H3.37154C1.96807 0 0.820312 1.03878 0.820312 2.55102V17.3255C0.820312 18.8378 1.96807 19.8765 3.37154 19.8765H18.1456C19.5487 19.8765 20.6966 18.8378 20.6966 17.3255V2.55102C20.6966 1.03878 19.5487 0 18.1456 0ZM14.405 3.10327C14.405 2.61082 14.8073 2.20837 15.2995 2.20837H17.546C18.0383 2.20837 18.4409 2.61082 18.4409 3.10327V5.2451C18.4409 5.73735 18.0383 6.14 17.546 6.14H15.2995C14.8073 6.14 14.405 5.73735 14.405 5.2451V3.10327ZM18.4503 8.40571H16.7009C16.8664 8.94612 16.956 9.51857 16.956 10.1108C16.956 13.4169 14.1895 16.0969 10.7775 16.0969C7.36562 16.0969 4.5995 13.4169 4.5995 10.1108C4.5995 9.51816 4.68888 8.94592 4.8546 8.40571H3.02909V16.8018C3.02909 17.2363 3.3846 17.592 3.81929 17.592H17.6605C18.0952 17.592 18.4507 17.2365 18.4507 16.8018V8.40571H18.4503ZM6.78541 9.8951C6.78541 7.75878 8.57276 6.02714 10.7773 6.02714C12.9821 6.02714 14.7695 7.75878 14.7695 9.8951C14.7695 12.0314 12.9819 13.7631 10.7773 13.7631C8.57276 13.7631 6.78541 12.0314 6.78541 9.8951Z" fill="black"/>
</svg>
