<svg width="23" height="23" viewBox="0 0 23 23" fill="none" xmlns="http://www.w3.org/2000/svg">
<path d="M22.5011 10.4683C22.9538 10.0271 23.1137 9.37959 22.9184 8.77765C22.7227 8.17571 22.2128 7.74602 21.5865 7.65483L16.0175 6.84563C15.7803 6.81109 15.5753 6.66233 15.4694 6.44726L12.9797 1.40144C12.7001 0.834501 12.1327 0.482178 11.5004 0.482178C10.8685 0.482178 10.3011 0.834501 10.0215 1.40144L7.53132 6.44772C7.42539 6.6628 7.21999 6.81155 6.9828 6.84609L1.4138 7.65529C0.78791 7.74601 0.277618 8.17617 0.0818828 8.77811C-0.113392 9.38006 0.0464202 10.0276 0.499144 10.4688L4.52852 14.3964C4.7003 14.564 4.77906 14.8054 4.73853 15.0412L3.78795 20.5871C3.70367 21.0753 3.8317 21.5502 4.14764 21.9246C4.63859 22.5081 5.49568 22.6859 6.18098 22.3257L11.1614 19.707C11.3696 19.5979 11.6316 19.5988 11.8393 19.707L16.8202 22.3257C17.0625 22.4533 17.3208 22.5178 17.5875 22.5178C18.0743 22.5178 18.5358 22.3013 18.8531 21.9246C19.1695 21.5502 19.2971 21.0744 19.2128 20.5871L18.2617 15.0412C18.2212 14.8049 18.3 14.564 18.4718 14.3964L22.5011 10.4683Z" fill="#EB1C23"/>
</svg>
