<svg width="20" height="20" viewBox="0 0 20 20" fill="none" xmlns="http://www.w3.org/2000/svg">
<path d="M19.6803 9.22297L12.4576 2.0001C12.2514 1.79393 11.9766 1.68076 11.6836 1.68076C11.3903 1.68076 11.1157 1.79409 10.9095 2.0001L10.2537 2.65603C10.0477 2.86188 9.93422 3.13684 9.93422 3.43001C9.93422 3.72302 10.0477 4.00724 10.2537 4.21309L14.4674 8.43598H1.08048C0.476906 8.43598 0 8.9085 0 9.51224V10.4395C0 11.0433 0.476906 11.5634 1.08048 11.5634H14.5152L10.2539 15.8099C10.0479 16.0161 9.93438 16.2836 9.93438 16.5767C9.93438 16.8696 10.0479 17.141 10.2539 17.347L10.9097 18.0008C11.1158 18.207 11.3905 18.3193 11.6838 18.3193C11.9768 18.3193 12.2516 18.2055 12.4578 17.9993L19.6805 10.7766C19.8871 10.5698 20.0008 10.2937 20 10.0002C20.0006 9.70573 19.8871 9.42947 19.6803 9.22297Z" fill="white"/>
</svg>
