<svg width="145" height="145" viewBox="0 0 145 145" fill="none" xmlns="http://www.w3.org/2000/svg">
<path d="M142.478 53.7494C137.45 34.9838 125.477 19.3348 108.765 9.68608C97.8153 3.36385 85.3433 0.0223389 72.6989 0.0223389C46.7269 0.0223389 22.5815 13.8982 9.68586 36.2344C0.0376961 52.9459 -2.50688 72.4844 2.52167 91.2506C7.54994 110.017 19.5224 125.665 36.2345 135.314C38.5598 136.657 40.9538 137.863 43.4037 138.933H42.2794C40.6102 138.933 39.2574 140.287 39.2574 141.956C39.2574 143.625 40.6105 144.978 42.2794 144.978H72.2658C72.2777 144.978 72.2893 144.978 72.3015 144.978C72.3134 144.978 72.325 144.978 72.3369 144.978H102.721C104.39 144.978 105.744 143.624 105.744 141.956C105.744 140.287 104.39 138.933 102.721 138.933H101.375C115.44 132.829 127.462 122.366 135.314 108.766C144.962 92.054 147.507 72.5155 142.478 53.7494ZM130.079 105.744C118.265 126.206 96.1421 138.921 72.3366 138.933H72.2655C60.6922 138.927 49.2788 135.866 39.2565 130.079C7.5069 111.749 -3.41002 71.0055 14.9206 39.2562C26.7401 18.7843 48.8795 6.06646 72.6991 6.06646C84.2841 6.06646 95.7108 9.12817 105.743 14.9205C137.492 33.2511 148.409 73.9941 130.079 105.744Z" fill="#EB1C23"/>
<path d="M58.4213 125.045C39.7087 120.03 24.9691 105.291 19.9547 86.5794C19.5228 84.9669 17.8647 84.0094 16.2535 84.4421C14.6413 84.8743 13.6843 86.5316 14.1165 88.1436C19.6879 108.935 36.0647 125.312 56.8569 130.883C57.1186 130.954 57.382 130.987 57.6408 130.987C58.975 130.987 60.1965 130.097 60.5581 128.746C60.9903 127.134 60.0333 125.477 58.4213 125.045Z" fill="#EB1C23"/>
<path d="M88.1429 14.1158C86.5312 13.6842 84.8738 14.6411 84.4417 16.2531C84.0095 17.8651 84.9665 19.5218 86.5787 19.954C105.292 24.969 120.031 39.7077 125.044 58.4195C125.406 59.7695 126.627 60.6602 127.962 60.6602C128.221 60.6602 128.484 60.6268 128.745 60.5563C130.358 60.1241 131.315 58.4674 130.882 56.8554C125.312 36.0643 108.935 19.6872 88.1429 14.1158Z" fill="#EB1C23"/>
<path d="M70.6929 126.869C69.9382 126.843 69.1766 126.802 68.4301 126.746C66.7722 126.619 65.3149 127.869 65.1903 129.534C65.0654 131.198 66.3132 132.649 67.9778 132.773C68.8068 132.836 69.6518 132.881 70.4893 132.91C70.5238 132.911 70.5584 132.911 70.5929 132.911C72.2148 132.911 73.5566 131.624 73.6113 129.991C73.6679 128.323 72.361 126.925 70.6929 126.869Z" fill="#EB1C23"/>
<path d="M74.3048 18.1308C75.0573 18.1568 75.8205 18.1982 76.5718 18.2534C76.648 18.2593 76.7236 18.2616 76.7987 18.2616C78.3659 18.2616 79.6913 17.0515 79.8094 15.463C79.9329 13.7983 78.6837 12.3492 77.0193 12.2254C76.1875 12.164 75.3439 12.1181 74.511 12.0898C72.8452 12.0277 71.4445 13.3395 71.3875 15.0073C71.3306 16.6759 72.637 18.0744 74.3048 18.1308Z" fill="#EB1C23"/>
<path d="M98.95 43.4485C96.3207 43.4485 93.854 44.4672 92.0039 46.3176L60.4768 77.8444L52.9955 70.3621C51.1456 68.5123 48.6789 67.4936 46.0499 67.4936C43.4207 67.4936 40.9537 68.5128 39.1041 70.3627C37.2536 72.2131 36.2344 74.6798 36.2344 77.3088C36.2344 79.9378 37.2533 82.4045 39.1038 84.2549L53.552 98.7028L53.6769 98.8255C53.6984 98.8467 53.7207 98.8674 53.7431 98.8881L53.8703 99.0056C53.8887 99.0234 53.9079 99.0404 53.9272 99.0568L54.0575 99.1713C54.0753 99.1866 54.0929 99.2021 54.111 99.2166L54.2433 99.3276C54.2608 99.3417 54.2781 99.3565 54.2959 99.3709L54.4299 99.478C54.4534 99.4969 54.4775 99.5151 54.5013 99.5335L54.6378 99.6363C54.6596 99.653 54.6819 99.6686 54.7043 99.6847L54.8428 99.7833C54.8618 99.7963 54.8808 99.8099 54.9 99.8229L55.0402 99.9175C55.06 99.9311 55.0801 99.9441 55.0999 99.9571L55.2427 100.049C55.2642 100.062 55.286 100.076 55.3075 100.089L55.4517 100.177C55.4758 100.191 55.5004 100.206 55.5248 100.22L55.6703 100.302C55.6896 100.313 55.7086 100.324 55.7281 100.335L55.8751 100.414C55.8963 100.425 55.9173 100.436 55.9385 100.447L56.0872 100.523C56.1113 100.535 56.1356 100.547 56.16 100.559L56.3104 100.63C56.3322 100.641 56.3545 100.651 56.3769 100.661L56.5281 100.729C56.5511 100.739 56.5743 100.749 56.5975 100.759L56.751 100.823C56.7708 100.831 56.7912 100.84 56.8111 100.848L56.9646 100.908C56.9895 100.917 57.0141 100.927 57.039 100.936L57.1954 100.993C57.2206 101.002 57.2455 101.011 57.2707 101.019L57.4265 101.071C57.4483 101.078 57.4706 101.085 57.493 101.092L57.6505 101.141C57.6751 101.148 57.7 101.155 57.7252 101.162L57.8836 101.207C57.9003 101.212 57.917 101.216 57.934 101.221L58.0923 101.262C58.124 101.27 58.156 101.278 58.1877 101.285L58.3483 101.321C58.3658 101.326 58.3831 101.329 58.4007 101.332L58.5613 101.366C58.5907 101.372 58.6196 101.378 58.6488 101.383L58.7374 101.399C58.7861 101.409 58.8351 101.417 58.885 101.425L59.0467 101.45C59.0651 101.452 59.0832 101.455 59.1016 101.457L59.2639 101.479C59.2908 101.482 59.3177 101.486 59.3446 101.488L59.5069 101.506C59.525 101.507 59.5434 101.509 59.5621 101.511L59.7249 101.525C59.7561 101.528 59.787 101.53 59.8181 101.532L59.9815 101.541C60.003 101.542 60.0248 101.543 60.0461 101.544L60.2089 101.55C60.229 101.55 60.2494 101.551 60.2693 101.551L60.4327 101.553C60.4471 101.554 60.4621 101.554 60.4766 101.554C60.491 101.554 60.506 101.554 60.5202 101.553L60.6836 101.551C60.7034 101.551 60.7238 101.55 60.7436 101.55L60.9067 101.544C60.9322 101.543 60.9572 101.542 60.9826 101.54L61.1461 101.531C61.1698 101.529 61.1942 101.527 61.2183 101.525L61.3805 101.512C61.4018 101.51 61.4233 101.507 61.4443 101.506L61.6071 101.488C61.634 101.485 61.6609 101.482 61.6875 101.479L61.8504 101.457C61.8696 101.455 61.8892 101.452 61.9084 101.449L62.0696 101.425C62.1191 101.417 62.1684 101.408 62.2171 101.398L62.3055 101.383C62.3335 101.378 62.3621 101.373 62.3899 101.366L62.5507 101.334C62.5728 101.329 62.5946 101.324 62.6167 101.319L62.7767 101.282C62.8 101.277 62.8229 101.271 62.8458 101.265L63.005 101.224C63.0268 101.219 63.0489 101.213 63.071 101.206L63.229 101.162C63.2548 101.155 63.2797 101.148 63.3052 101.14L63.4624 101.091C63.4847 101.085 63.5068 101.078 63.5295 101.07L63.6858 101.018C63.7102 101.01 63.7351 101.001 63.7595 100.992L63.9158 100.935C63.9362 100.927 63.9566 100.92 63.9772 100.912L64.131 100.853C64.1591 100.842 64.1877 100.83 64.2151 100.818L64.3681 100.754C64.3822 100.748 64.3964 100.742 64.4102 100.736L64.5623 100.669C64.5921 100.656 64.6207 100.642 64.6496 100.628L64.7991 100.557C64.82 100.547 64.8407 100.536 64.8614 100.526L65.0106 100.45C65.0333 100.439 65.056 100.427 65.0786 100.415L65.2256 100.335C65.2449 100.325 65.2644 100.314 65.2834 100.303L65.4289 100.221C65.4544 100.206 65.4793 100.191 65.5043 100.176L65.6484 100.089C65.6708 100.075 65.6934 100.061 65.7161 100.047L65.8583 99.9552C65.875 99.9441 65.8914 99.9334 65.9081 99.9223L66.0489 99.8277C66.0698 99.8136 66.0905 99.7988 66.1112 99.7844L66.2497 99.6858C66.2729 99.6691 66.2955 99.653 66.3185 99.6357L66.4547 99.5329C66.4779 99.5151 66.5009 99.4975 66.5235 99.4791L66.6575 99.372C66.6719 99.3601 66.6864 99.3485 66.7011 99.3366L66.8333 99.227C66.8713 99.1953 66.909 99.1628 66.9455 99.1291L67.0282 99.056C67.0438 99.0424 67.0596 99.0282 67.0746 99.0141L67.2026 98.8965C67.2256 98.8753 67.2485 98.8541 67.2712 98.8317L67.3958 98.7102C67.4193 98.6878 67.4422 98.6643 67.4649 98.6408L105.896 60.2104C107.745 58.3605 108.764 55.8938 108.764 53.2649C108.764 50.6353 107.745 48.1686 105.895 46.3193C104.046 44.4672 101.579 43.4485 98.95 43.4485ZM101.623 55.9355L63.1319 94.4259L62.9175 94.6219L62.4035 94.9872L61.8189 95.2659L61.0903 95.4585L60.4768 95.5075L60.3871 95.5063L59.7467 95.4378L59.1302 95.2636L58.4743 94.9408L57.9422 94.5395L43.3779 79.9811C42.669 79.2723 42.2785 78.3238 42.2785 77.3088C42.2785 76.2944 42.669 75.3457 43.3782 74.6365C44.0865 73.9277 45.0352 73.5374 46.0502 73.5374C47.0646 73.5374 48.0136 73.9277 48.7222 74.6359L58.3401 84.2549C58.9068 84.8216 59.6757 85.1405 60.4771 85.1405C61.2786 85.1405 62.0472 84.8216 62.6142 84.2549L96.2782 50.5909C96.9868 49.8826 97.9356 49.4923 98.9506 49.4923C99.9647 49.4923 100.914 49.8826 101.623 50.5914C102.331 51.2997 102.722 52.2482 102.722 53.2629C102.721 54.2782 102.331 55.2272 101.623 55.9355Z" fill="#EB1C23"/>
</svg>
