<svg width="20" height="22" viewBox="0 0 20 22" fill="none" xmlns="http://www.w3.org/2000/svg">
<g clip-path="url(#clip0)">
<path d="M19.6803 10.1712L12.4576 2.46686C12.2514 2.24694 11.9766 2.12622 11.6836 2.12622C11.3903 2.12622 11.1157 2.24711 10.9095 2.46686L10.2537 3.16651C10.0477 3.38609 9.93422 3.67938 9.93422 3.99209C9.93422 4.30463 10.0477 4.6078 10.2537 4.82738L14.4674 9.33179L1.08048 9.33179C0.476906 9.33179 -2.10621e-08 9.83581 -2.28215e-08 10.4798L-2.55237e-08 11.4689C-2.7283e-08 12.1129 0.476906 12.6677 1.08048 12.6677L14.5152 12.6677L10.2539 17.1973C10.0479 17.4172 9.93438 17.7025 9.93438 18.0153C9.93438 18.3276 10.0479 18.6171 10.2539 18.8368L10.9097 19.5342C11.1158 19.7542 11.3905 19.874 11.6838 19.874C11.9768 19.874 12.2516 19.7526 12.4578 19.5327L19.6805 11.8285C19.8871 11.6079 20.0008 11.3133 20 11.0003C20.0006 10.6862 19.8871 10.3915 19.6803 10.1712Z" fill="white"/>
</g>
<defs>
<clipPath id="clip0">
<rect width="20" height="21.3333" fill="white" transform="translate(0 0.333374)"/>
</clipPath>
</defs>
</svg>
